<?xml version="1.0" encoding="UTF-8"?>
<!DOCTYPE svg PUBLIC "-//W3C//DTD SVG 1.1//EN" "http://www.w3.org/Graphics/SVG/1.1/DTD/svg11.dtd">
<!-- Creator: CorelDRAW -->
<svg xmlns="http://www.w3.org/2000/svg" xml:space="preserve" width="150.793mm" height="190.746mm" version="1.1" style="shape-rendering:geometricPrecision; text-rendering:geometricPrecision; image-rendering:optimizeQuality; fill-rule:evenodd; clip-rule:evenodd"
viewBox="0 0 1134.2 1434.71"
 xmlns:xlink="http://www.w3.org/1999/xlink"
 xmlns:xodm="http://www.corel.com/coreldraw/odm/2003">
 <defs>
  <style type="text/css">
   <![CDATA[
    .str10 {stroke:#020111;stroke-width:5.64;stroke-miterlimit:22.9256}
    .str1 {stroke:#020111;stroke-width:3.76;stroke-miterlimit:22.9256}
    .str15 {stroke:#020111;stroke-width:1.5;stroke-miterlimit:22.9256}
    .str14 {stroke:#020111;stroke-width:1.5;stroke-miterlimit:22.9256}
    .str9 {stroke:#020111;stroke-width:5.64;stroke-linecap:round;stroke-linejoin:round;stroke-miterlimit:22.9256}
    .str13 {stroke:#020111;stroke-width:3.76;stroke-linecap:round;stroke-linejoin:round;stroke-miterlimit:22.9256}
    .str11 {stroke:white;stroke-width:3.76;stroke-linecap:round;stroke-linejoin:round;stroke-miterlimit:22.9256}
    .str12 {stroke:#020111;stroke-width:11.28;stroke-linecap:round;stroke-linejoin:round;stroke-miterlimit:22.9256}
    .str0 {stroke:#020111;stroke-width:3.86;stroke-miterlimit:10}
    .str2 {stroke:#020111;stroke-width:3.86;stroke-miterlimit:10}
    .str5 {stroke:#020111;stroke-width:3.86;stroke-miterlimit:10}
    .str7 {stroke:#020111;stroke-width:3.86;stroke-miterlimit:10}
    .str6 {stroke:#020111;stroke-width:3.86;stroke-miterlimit:10}
    .str3 {stroke:#020111;stroke-width:3.86;stroke-miterlimit:10}
    .str8 {stroke:#020111;stroke-width:3.86;stroke-miterlimit:10}
    .str4 {stroke:#020111;stroke-width:3.86;stroke-miterlimit:10}
    .fil6 {fill:none}
    .fil19 {fill:#020111}
    .fil7 {fill:#020111}
    .fil16 {fill:#8B7CDB}
    .fil13 {fill:#8B7CDB}
    .fil14 {fill:#B3B3B3}
    .fil11 {fill:#C89992}
    .fil0 {fill:#DBD7EF}
    .fil12 {fill:#DBD7F0}
    .fil15 {fill:#E6E6E6}
    .fil10 {fill:#FFB55C}
    .fil17 {fill:white}
    .fil8 {fill:white}
    .fil5 {fill:#020111;fill-rule:nonzero}
    .fil2 {fill:#8B7CDB;fill-rule:nonzero}
    .fil3 {fill:#DBD7F0;fill-rule:nonzero}
    .fil4 {fill:white;fill-rule:nonzero}
    .fil9 {fill:#020111;fill-opacity:0.101961}
    .fil18 {fill:#385362;fill-opacity:0.101961}
    .fil1 {fill:#020111;fill-opacity:0.200000}
    .fil20 {fill:white;fill-opacity:0.501961}
   ]]>
  </style>
    <clipPath id="id0">
     <path d="M431.21 1432.86l-431.21 0 0 -1432.86 431.21 0 0 1432.86z"/>
    </clipPath>
    <clipPath id="id1">
     <path d="M434.5 656.05c-4.21,-12.3 -7.92,-28.8 -13.14,-40.26 -5.22,-11.45 -11.96,-17.86 -20.21,-21.22 -8.25,-3.37 -18.02,-3.71 -61.65,-3.54 -43.63,0.17 -121.11,0.84 -163.89,3.37 -42.78,2.53 -50.87,6.91 -58.28,13.14 -7.41,6.23 -14.15,14.32 2.86,92.81 17.01,78.49 57.77,227.39 79.67,304.2 21.9,76.81 24.93,81.52 30.82,84.56 5.89,3.03 14.65,4.38 74.45,5.05 59.8,0.67 170.63,0.67 228.23,0 57.61,-0.67 61.98,-2.02 68.55,-6.74 6.57,-4.72 15.33,-12.8 22.07,-24.42 6.74,-11.62 11.45,-26.78 9.49,-42.41 -1.96,-15.62 -10.6,-31.71 -24.59,-54.62 -13.98,-22.91 -33.3,-52.63 -54.28,-78.65 -20.98,-26.02 -43.64,-48.33 -59.47,-73.76 -15.83,-25.43 -24.85,-53.99 -31.55,-76.02 -6.7,-22.03 -11.08,-37.52 -15.62,-49.31 -4.55,-11.79 -9.27,-19.88 -13.48,-32.17z"/>
    </clipPath>
 </defs>
 <g id="Слой_x0020_1">
  <metadata id="CorelCorpID_0Corel-Layer"/>
  <g id="_1772727628976">
   <polygon class="fil0" points="431.21,1432.86 -0,1432.86 -0,0 431.21,0 "/>
   <g style="clip-path:url(#id0)">
    <g>
     <path id="_1" class="fil1" d="M-63.32 910.04c-5.83,5.13 -19.97,19.45 -20.28,37.99 -0.4,23.37 8.31,42.72 -13.83,53.63 -11.83,5.83 -36.07,-3.82 -63.21,-23.62 11.78,-9.8 27.43,-23.63 33.85,-32.88 10.88,-15.67 2.25,-24.09 -16.89,-13.75 -11.76,6.35 -28.52,19.11 -39.85,28.05 -15.22,-13.58 -30.53,-29.72 -44.4,-47.59 20.49,-9.58 49.51,-24.18 57.7,-32.24 13.01,-12.82 1.22,-25.41 -21.22,-20.58 -13.55,2.92 -40.15,12.47 -59.09,19.58 -9.86,-16.75 -17.14,-33.1 -21.78,-48.67 10.89,-2.48 23.35,-5.63 32.44,-8.88 19.99,-7.14 16,-20.45 1.4,-23.86 -8.66,-2.03 -26.68,-2.51 -39.93,-2.57 -0.63,-18.73 3.32,-35.57 12.03,-49.53 0,0 9.92,-10.8 28.76,-18.27 3.33,5.85 9.83,15.5 15.93,14.36 4.91,-0.92 2.85,-10.78 0.13,-19.17 10.31,-2.14 22.3,-2.95 35.97,-1.16 2.34,0.31 4.69,0.74 7.04,1.16 3.4,8.18 7.4,18.73 10.54,29.74 6.78,23.74 7.44,39.07 16.34,40.81 8.9,1.73 13.05,-10.09 11.38,-31.77 -0.69,-9.05 -1.99,-19.45 -3.26,-28.49 16.5,6.7 32.57,15.81 47.66,26.74 0.59,7.9 1.04,18.18 0.34,26.73 -1.34,16.38 -7.27,27.54 -0.61,32.84 6.16,4.9 18.68,-10.99 20.26,-43.53 11.69,10.36 22.53,21.74 32.12,33.85 7.88,9.95 14.46,18.72 20.03,26.59 -7.57,0.97 -16.64,2.96 -25.8,7 -22.5,9.93 -28.48,22.8 -23.81,26.86 4.67,4.06 12.72,-4.92 34.18,-9.1 10.52,-2.04 21.6,-2.19 30.19,-1.81 8.15,14.5 10.68,24.15 9.55,30.96 -2.1,12.66 -17.41,7.85 -31.23,6.05 -13.82,-1.8 -30.2,12.49 -30.2,12.49 0,0 -0.95,0.71 -2.47,2.05zm260.91 -154.92c6.51,6.09 11.8,12.92 16.1,20.36 -9.02,4.75 -22.77,12.45 -26.18,16.99 -5.17,6.9 -2.15,10.78 14.45,7.76 7.03,-1.28 14.22,-3.44 20.26,-5.51 4.73,14.38 6.85,30.28 7.23,47.06 -11.87,2.09 -33.4,6.27 -46.47,11.17 -18.76,7.03 -26.75,17.6 -23.08,23.85 3.06,5.22 40.91,-0.51 68.41,-1.93 -0.89,10.68 -2.16,21.52 -3.7,32.4 -0.74,5.22 -1.67,10.25 -2.68,15.2 -10.24,-0.46 -25.06,-0.64 -40.03,0.92 -26.96,2.8 -38.18,8.76 -33.22,16.78 4.06,6.57 32.28,9.65 63.09,17.65 -4.24,11.15 -9.1,21.14 -14.37,29.66 -11.11,-5.95 -27.53,-14.09 -33.19,-13.4 -8.84,1.08 -10.57,5.39 0,15.96 4.98,4.98 11.47,12.04 17.03,18.05 -8.17,7.94 -16.54,12.66 -24.32,13.44 -25.84,2.59 -34.76,-16.61 -39.29,-30.41 -3.61,-10.99 -13.91,-18.29 -17.96,-20.81 -7.06,28.54 -20.45,89.11 -26.86,160.62l146.34 0 0.54 8.48 0 130.24c0,89.8 -72.54,163.26 -161.21,163.27 -88.66,-0 -161.2,-73.47 -161.2,-163.27l0 -130.24c-0.06,-2.8 0.15,-5.64 0.54,-8.48l138.1 0c0.2,-6.89 0.64,-19.75 1.57,-37.28 -30.11,-76.29 -79.96,-153.02 -100.8,-183.61 1.64,-1.23 2.63,-1.88 2.63,-1.88 0,0 0.65,-0.49 1.8,-1.28 20.01,29.46 66.48,101.15 97.08,174.26 1.4,-23.64 3.58,-53.69 6.95,-87.88 -5.57,0.3 -11.6,-0.54 -17.96,-3 -9.99,-3.87 -15.79,-15.69 -17.87,-31.48 6.42,-0.2 13.81,-0.58 20.31,-1.3 15.53,-1.73 23.52,-6.04 18.55,-12.86 -3.6,-4.96 -26.6,-11.5 -38.96,-14.72 1.42,-14.36 4.81,-29.73 10.05,-44.46 2.38,-6.7 5.3,-13.6 8.58,-20.56 7.52,8.67 18.82,21.3 29.1,31.18 2.18,-14.99 4.46,-29.43 6.79,-43.22 -5.86,-8.86 -11.7,-17.25 -16.02,-23.33 6.46,-9.91 13.48,-19.52 20.9,-28.45 1.03,1.97 2.14,4.06 3.32,6.23 8.76,-45.61 17.15,-80.69 22.13,-100.3 -11.79,-0.66 -17.62,7.55 -25.31,14.26 -8.41,7.34 -28.04,15.53 -42.41,-1.38 -9.34,-11 -13.36,-27.8 -10.24,-55.83 9.94,1.27 23.73,2.91 33.09,5.96 16.11,5.26 18.12,-4.11 5.62,-18.78 -8.16,-9.58 -22.86,-18.52 -32.11,-23.58 1.44,-6.12 3.05,-12.54 4.93,-19.41 4.72,-17.31 10.74,-35.4 17.96,-53.49 6.22,6.94 12.67,14.54 16.84,20.56 10.36,14.95 22.43,10.07 18.98,-4.31 -2.14,-8.93 -13.49,-31.61 -21.93,-47.73 7.64,-15.68 16.27,-30.94 25.85,-45.31 8.88,14.72 19.91,32.28 25.7,38.69 10.64,11.79 20.7,4.31 15.82,-17.83 -2.87,-12.98 -11.75,-34.91 -18.61,-51.06 7.41,-8.54 15.21,-16.55 23.5,-23.72 3.3,-2.85 6.55,-5.46 9.74,-7.86 1.91,9.08 4.22,19.29 6.36,26.85 4.89,17.26 15.53,16.39 16.39,-3.74 0.46,-10.64 -0.45,-25.17 -1.41,-36.55 35.56,-18.36 59.79,-10.32 59.79,-10.32 15.78,3.73 28.77,14.7 39.06,30.28 -7.75,2.69 -16.58,6.78 -12.17,10.41 3.21,2.64 11.04,2.32 18.84,1.1 6.01,11.69 10.85,25.13 14.51,39.61 -14.22,1.6 -41.2,5.04 -61.83,10.19 -29.33,7.33 -43.14,15.53 -34.51,22.86 7.32,6.23 55.35,-1.2 102.42,-0.95 2.16,16.44 3.01,33.39 2.65,49.97 -19.65,0.4 -50.92,1.37 -69.7,3.61 -28.9,3.45 -28.9,19.84 -15.53,22 8.89,1.43 53.77,4.58 82.89,6.53 -1.35,10.55 -3.23,20.68 -5.67,30.07 -3.33,12.8 -7.34,25.06 -11.77,36.74 -15.42,-4.73 -42.95,-12.08 -67.61,-12.95 -36.67,-1.3 -44.86,6.04 -37.96,12.51 5.62,5.27 52.4,20.26 87.29,40.31 -17.14,31.08 -37.31,53.26 -55.96,60.45z"/>
     <path class="fil2 str0" d="M-111.18 908.76c0,0 -8.22,11.08 -16.1,9.76 -7.88,-1.33 -12.89,-7.29 -1.99,-18.63 10.9,-11.34 18.56,-9.96 21.58,-4.6 3.02,5.35 -1.17,10.77 -3.49,13.47zm-66.95 2.09c-16.07,4.73 -18.37,-9.02 0.45,-19.73 18.82,-10.71 33.64,-16.71 44.43,-17.3 10.79,-0.59 13.41,5.84 1.79,11.87 0,0 -30.6,20.43 -46.67,25.17zm22.76 -64.45c4.16,6.19 3.02,12.2 -6.88,15.29 0,0 -8.85,1.9 -11.81,-6.66 -2.96,-8.56 14.53,-14.81 18.69,-8.62zm-126.74 -101.28c-8.71,13.96 -12.66,30.79 -12.03,49.53 13.25,0.06 31.26,0.55 39.93,2.57 14.59,3.42 18.59,16.72 -1.4,23.87 -9.1,3.25 -21.55,6.4 -32.44,8.88 4.64,15.57 11.91,31.92 21.78,48.67 18.94,-7.11 45.53,-16.66 59.09,-19.58 22.43,-4.83 34.22,7.77 21.22,20.58 -8.18,8.06 -37.21,22.66 -57.7,32.24 13.88,17.87 29.18,34.01 44.4,47.59 11.33,-8.94 28.08,-21.7 39.85,-28.05 19.14,-10.34 27.77,-1.92 16.89,13.75 -6.42,9.25 -22.08,23.07 -33.85,32.88 27.14,19.81 51.38,29.45 63.21,23.62 22.14,-10.91 13.43,-30.26 13.83,-53.63 0.39,-23.37 22.76,-40.03 22.76,-40.03 -32.15,-50.96 -144.45,-158.38 -205.52,-162.88z"/>
     <path class="fil3 str1" d="M-111.76 831.82c0,0 -1.22,14.69 -5.93,16.29 -4.71,1.6 -9.62,-2.06 -7.86,-10.91 1.75,-8.84 3.5,-12.56 8.75,-12.76 5.25,-0.2 5.04,7.38 5.04,7.38zm56.85 28.49c-21.47,4.18 -29.51,13.16 -34.18,9.1 -4.67,-4.06 1.31,-16.94 23.81,-26.86 9.15,-4.04 18.22,-6.03 25.8,-7 -5.57,-7.87 -12.15,-16.65 -20.03,-26.59 -9.59,-12.12 -20.44,-23.5 -32.12,-33.85 -1.58,32.54 -14.11,48.44 -20.26,43.53 -6.66,-5.3 -0.73,-16.45 0.61,-32.84 0.7,-8.55 0.25,-18.83 -0.34,-26.73 -15.09,-10.93 -31.16,-20.04 -47.66,-26.74 1.27,9.05 2.56,19.44 3.26,28.49 1.67,21.68 -2.48,33.5 -11.38,31.77 -8.9,-1.74 -9.56,-17.07 -16.34,-40.81 -3.14,-11.01 -7.14,-21.56 -10.54,-29.74 -2.35,-0.42 -4.69,-0.86 -7.04,-1.16 -13.67,-1.8 -25.65,-0.98 -35.97,1.16 2.72,8.4 4.78,18.25 -0.13,19.17 -6.1,1.14 -12.6,-8.51 -15.93,-14.36 -18.84,7.47 -28.76,18.27 -28.76,18.27 61.07,4.5 173.36,111.92 205.52,162.88 0,0 16.38,-14.29 30.2,-12.49 13.82,1.8 29.13,6.61 31.23,-6.05 1.13,-6.81 -1.4,-16.45 -9.55,-30.96 -8.59,-0.38 -19.68,-0.23 -30.19,1.81z"/>
     <g>
      <path class="fil2 str2" d="M36.82 1138.2c-24.5,-88.91 -90.95,-191.55 -115.89,-228.15 1.64,-1.23 2.63,-1.88 2.63,-1.88 0,0 0.65,-0.49 1.8,-1.29 25.17,37.06 92.22,140.96 116.87,230.43l-5.23 0.89 -0.18 -0z"/>
      <g>
       <path class="fil2 str3" d="M25.7 1136.92l-5.68 -0.24c0.01,-1.03 1.88,-102.66 19.55,-229.21 17.67,-126.57 43.12,-217.15 43.38,-218.05l5.46 1.54c-0.25,0.9 -25.6,91.13 -43.22,217.29 -17.61,126.19 -19.48,227.63 -19.49,228.67z"/>
       <path class="fil4 str4" d="M80.62 617.27c-6.9,2.3 -14.36,-15.53 -14.36,-15.53 -4.68,-8.75 7.74,-15.82 14.36,-6.62 6.62,9.21 6.9,19.84 0,22.15zm-19.84 41.54c-5.18,-11.96 -17.25,-31.47 -17.25,-31.47 -3.34,-5.53 1.15,-11.21 7.48,-8.63 6.32,2.59 17.26,12.94 23.01,28.68 5.75,15.74 -8.05,23.38 -13.23,11.42zm-4.6 33.81c-4.31,4.89 -16.11,6.04 -19.84,1.85 -3.74,-4.19 2.74,-7.31 2.74,-7.31 15.98,-9.2 21.42,0.58 17.1,5.47zm90.9 -289.92c0.96,11.38 1.87,25.92 1.41,36.55 -0.86,20.13 -11.5,21 -16.39,3.74 -2.14,-7.55 -4.45,-17.76 -6.36,-26.84 -3.19,2.4 -6.44,5.01 -9.74,7.86 -8.29,7.17 -16.08,15.18 -23.5,23.72 6.87,16.15 15.75,38.07 18.61,51.06 4.88,22.14 -5.18,29.62 -15.82,17.83 -5.78,-6.41 -16.82,-23.97 -25.7,-38.69 -9.58,14.37 -18.21,29.64 -25.85,45.31 8.44,16.12 19.78,38.8 21.93,47.73 3.45,14.38 -8.63,19.27 -18.98,4.31 -4.17,-6.02 -10.62,-13.62 -16.84,-20.56 -7.22,18.08 -13.23,36.18 -17.96,53.49 -1.88,6.87 -3.48,13.28 -4.93,19.41 9.25,5.07 23.95,14 32.11,23.59 12.5,14.67 10.49,24.04 -5.62,18.78 -9.36,-3.06 -23.15,-4.69 -33.09,-5.96 -3.12,28.03 0.9,44.84 10.24,55.83 14.37,16.91 34,8.71 42.41,1.38 8.41,-7.33 14.59,-16.45 28.76,-13.83 11.85,-7.53 26.58,-73.55 51.04,-138.87 32.31,-86.27 74.05,-176.15 74.05,-176.15 0,0 -24.23,-8.04 -59.79,10.32z"/>
       <path class="fil2 str5" d="M168.62 705.01c-16.39,-3.19 -35.95,-8.41 -50.9,-10.55 -14.96,-2.14 -16.38,-23.97 9.2,-19.03 0,0 23.29,1.66 39.97,10.86 16.68,9.2 18.12,21.92 1.72,18.72zm-33.15 -85.73c15.03,-5.47 39.03,-8.05 44.72,0 5.69,8.05 -3.8,9.2 -23.64,11.5 0,0 -27.61,6.61 -32.5,3.74 -4.89,-2.88 -3.61,-9.78 11.42,-15.24zm14.17 -51.48c15.24,-3.17 21,-0.29 22.44,7.19 1.44,7.48 -8.92,8.92 -8.92,8.92 0,0 -18.41,6.61 -24.45,0 -6.04,-6.62 -4.32,-12.94 10.93,-16.11zm0.86 86.56c-6.9,-6.47 1.29,-13.8 37.96,-12.51 24.66,0.87 52.19,8.22 67.61,12.95 4.43,-11.68 8.43,-23.94 11.77,-36.74 2.44,-9.39 4.32,-19.52 5.67,-30.07 -29.12,-1.95 -74,-5.1 -82.89,-6.53 -13.37,-2.16 -13.37,-18.55 15.53,-22 18.78,-2.24 50.04,-3.21 69.69,-3.61 0.36,-16.58 -0.49,-33.54 -2.65,-49.97 -47.07,-0.24 -95.1,7.18 -102.42,0.95 -8.62,-7.34 5.18,-15.53 34.51,-22.86 20.63,-5.16 47.6,-8.6 61.83,-10.19 -3.67,-14.48 -8.5,-27.92 -14.51,-39.61 -7.8,1.21 -15.63,1.54 -18.84,-1.1 -4.41,-3.63 4.42,-7.71 12.17,-10.41 -10.29,-15.59 -23.28,-26.55 -39.06,-30.28 -77.65,89.73 -122.51,290.11 -125.1,315.02 0,0 15.14,2.76 27.7,19.73 12.56,16.97 24.18,28.95 58.57,30.49 22.03,0.98 48.27,-23.98 69.75,-62.93 -34.89,-20.06 -81.67,-35.05 -87.29,-40.31z"/>
      </g>
      <g>
       <path class="fil2 str6" d="M56.54 1136.98l-5.95 -0.02c8.55,-102.62 32.22,-184.9 32.45,-185.72l5.46 1.56c-0.24,0.83 -23.47,82.15 -31.96,184.19z"/>
       <path class="fil2 str7" d="M94.03 875.66c-5.84,0.14 -7.96,-15.24 -7.96,-15.24 -2.07,-8.46 7.62,-10.21 10.78,-2.73 3.16,7.48 3.02,17.83 -2.82,17.98zm-47.37 67.8c-10.35,-6.69 -1.94,-13.37 6.47,-11.65 0,0 17.9,1.51 17.9,10.57 0,9.06 -14.02,7.77 -24.37,1.08zm68.3 -193.1c2.39,11.35 6.74,34.06 4.6,40.03 -2.88,8.05 -9.49,2.3 -16.68,-9.49 -3.72,-6.11 -7.04,-12.98 -9.4,-18.22 -7.27,4.96 -14.56,11.06 -21.73,17.96 6.71,14.34 19.8,43.12 21.92,53.75 2.88,14.38 -12.94,10.64 -24.16,-5.18 -5.96,-8.41 -12.14,-19.55 -16.65,-28.17 -7.41,8.93 -14.43,18.54 -20.9,28.45 11.33,15.98 33.22,47.85 38.15,62.41 6.73,19.84 0.69,28.04 -17.43,14.24 -12.15,-9.26 -30.08,-29.13 -40.6,-41.26 -3.28,6.96 -6.2,13.86 -8.58,20.56 -5.24,14.73 -8.63,30.1 -10.05,44.46 12.35,3.22 35.35,9.76 38.96,14.72 4.96,6.82 -3.02,11.13 -18.55,12.86 -6.5,0.72 -13.89,1.1 -20.31,1.3 2.08,15.8 7.88,27.62 17.87,31.48 23,8.91 41.7,-3.45 49.75,-13.81 8.05,-10.35 21.06,-7.12 21.06,-7.12 0,0 84.77,-193.47 84.57,-225.54 -6.29,-4.25 -25.59,-5.71 -51.86,6.56z"/>
       <path class="fil3 str8" d="M119.13 916.92c-6.26,-3.67 -8.41,-11 6.04,-15.53 14.45,-4.53 33,-7.76 34.94,0 1.94,7.76 -9.27,10.57 -9.27,10.57 -1.51,0.21 -25.45,8.63 -31.71,4.96zm29.33 73.12c-10.57,-10.57 -8.85,-14.88 0,-15.96 5.66,-0.69 22.08,7.45 33.19,13.4 5.27,-8.52 10.13,-18.51 14.37,-29.66 -30.81,-8 -59.03,-11.08 -63.09,-17.65 -4.96,-8.02 6.25,-13.98 33.22,-16.78 14.97,-1.56 29.79,-1.38 40.03,-0.92 1.01,-4.95 1.94,-9.98 2.67,-15.2 1.54,-10.88 2.81,-21.71 3.7,-32.4 -27.5,1.42 -65.35,7.15 -68.41,1.93 -3.67,-6.25 4.32,-16.82 23.08,-23.85 13.07,-4.9 34.6,-9.08 46.47,-11.17 -0.38,-16.78 -2.5,-32.68 -7.23,-47.06 -6.04,2.08 -13.22,4.24 -20.26,5.51 -16.61,3.02 -19.63,-0.86 -14.45,-7.77 3.41,-4.54 17.16,-12.24 26.18,-16.99 -7.22,-12.49 -17.26,-23.29 -31.12,-31.69 -37.33,60.54 -64.51,142.93 -84.57,225.54 0,0 15.1,7.98 19.63,21.78 4.53,13.8 13.45,33 39.3,30.41 7.78,-0.78 16.16,-5.5 24.32,-13.44 -5.56,-6.01 -12.05,-13.07 -17.03,-18.05z"/>
      </g>
     </g>
     <g>
      <path class="fil2" d="M-117.93 1130.94c-0.39,2.85 -0.6,5.68 -0.54,8.48l-0 0 0 130.24c0,89.8 72.54,163.26 161.2,163.26l0 0c88.66,-0 161.2,-73.47 161.2,-163.26l0 -130.24 -0 0 -0.54 -8.48 -321.33 0z"/>
      <path id="_1_0" class="fil5" d="M-118.47 1141.35l0 -3.86 -1.91 1.97 -0 -0.27 -0 -0.27 -0 -0.28 0 -0.27 0 -0.28 0 -0.27 0 -0.28 0.01 -0.28 0.01 -0.27 0.01 -0.28 0.01 -0.28 0.01 -0.27 0.01 -0.28 0.01 -0.27 0.02 -0.28 0.02 -0.28 0.02 -0.27 0.02 -0.28 0.02 -0.27 0.02 -0.27 0.02 -0.27 0.03 -0.28 0.03 -0.27 0.03 -0.27 0.03 -0.28 0.03 -0.27 0.03 -0.27 0.03 -0.27 0.03 -0.27 0.03 -0.27 0.04 -0.28 0.04 -0.27 3.78 0.53 -0.04 0.26 -0.03 0.26 -0.03 0.26 -0.03 0.26 -0.03 0.26 -0.03 0.26 -0.03 0.26 -0.03 0.26 -0.03 0.26 -0.03 0.26 -0.02 0.26 -0.02 0.26 -0.02 0.26 -0.02 0.26 -0.02 0.25 -0.02 0.26 -0.02 0.25 -0.01 0.25 -0.01 0.26 -0.01 0.25 -0.01 0.26 -0.01 0.25 -0.01 0.25 -0.01 0.26 -0.01 0.25 -0 0.25 -0 0.25 -0 0.25 0 0.25 0 0.25 0 0.25 0 0.25 -1.91 1.97zm1.91 -1.97c0.02,1.07 -0.81,1.95 -1.87,1.97 -1.05,0.02 -1.93,-0.82 -1.95,-1.89l3.82 -0.08zm-1.91 -1.89l0 0 0 3.86 -0 0 -1.91 -1.93 1.91 -1.93zm0 3.86c-1.05,0 -1.91,-0.86 -1.91,-1.93 0,-1.07 0.86,-1.93 1.91,-1.93l0 3.86zm-1.91 128.31l0 -130.24 3.82 0 0 130.24 0 0 -3.82 0zm3.82 0c0,1.07 -0.86,1.93 -1.91,1.93 -1.05,0 -1.91,-0.86 -1.91,-1.93l3.82 0zm159.29 161.34l0 3.86 0 0 -8.36 -0.22 -8.26 -0.64 -8.14 -1.06 -8.01 -1.46 -7.88 -1.85 -7.73 -2.24 -7.57 -2.61 -7.4 -2.97 -7.22 -3.32 -7.03 -3.66 -6.83 -3.99 -6.62 -4.31 -6.4 -4.62 -6.17 -4.91 -5.92 -5.2 -5.67 -5.48 -5.41 -5.74 -5.13 -6 -4.85 -6.25 -4.56 -6.48 -4.25 -6.7 -3.94 -6.92 -3.61 -7.12 -3.28 -7.31 -2.93 -7.49 -2.58 -7.67 -2.21 -7.83 -1.83 -7.98 -1.44 -8.11 -1.04 -8.24 -0.63 -8.36 -0.21 -8.47 3.82 0 0.21 8.27 0.62 8.17 1.02 8.05 1.41 7.92 1.79 7.79 2.15 7.64 2.51 7.48 2.86 7.32 3.2 7.14 3.53 6.95 3.85 6.76 4.15 6.55 4.45 6.33 4.74 6.1 5.02 5.86 5.28 5.61 5.54 5.35 5.79 5.08 6.02 4.8 6.25 4.51 6.46 4.21 6.67 3.9 6.87 3.57 7.05 3.24 7.22 2.9 7.39 2.55 7.54 2.18 7.69 1.81 7.82 1.43 7.95 1.03 8.06 0.63 8.17 0.21 0 0zm0 0c1.05,0 1.91,0.86 1.91,1.93 0,1.07 -0.86,1.93 -1.91,1.93l0 -3.86zm0 3.86l-0 0 0 -3.86 0 0 0 3.86zm0 -3.86c1.05,0 1.91,0.86 1.91,1.93 0,1.07 -0.86,1.93 -1.91,1.93l0 -3.86zm159.29 -161.34l3.82 0 0 0 -0.21 8.47 -0.63 8.36 -1.04 8.24 -1.44 8.11 -1.83 7.98 -2.21 7.83 -2.58 7.67 -2.93 7.49 -3.28 7.31 -3.61 7.12 -3.94 6.92 -4.25 6.7 -4.56 6.48 -4.85 6.25 -5.13 6 -5.41 5.74 -5.67 5.48 -5.92 5.2 -6.17 4.91 -6.4 4.62 -6.62 4.31 -6.83 3.99 -7.03 3.66 -7.22 3.32 -7.4 2.97 -7.57 2.61 -7.73 2.24 -7.88 1.85 -8.01 1.46 -8.14 1.06 -8.26 0.64 -8.36 0.22 0 -3.86 8.17 -0.21 8.06 -0.63 7.95 -1.03 7.82 -1.43 7.69 -1.81 7.54 -2.18 7.39 -2.55 7.22 -2.9 7.05 -3.24 6.87 -3.57 6.67 -3.9 6.46 -4.21 6.25 -4.51 6.02 -4.8 5.79 -5.08 5.54 -5.35 5.28 -5.61 5.02 -5.86 4.74 -6.1 4.45 -6.33 4.15 -6.55 3.85 -6.76 3.53 -6.95 3.2 -7.14 2.86 -7.32 2.51 -7.48 2.15 -7.64 1.79 -7.79 1.41 -7.92 1.02 -8.05 0.62 -8.17 0.21 -8.27 0 0zm0 0c0,-1.07 0.86,-1.93 1.91,-1.93 1.05,0 1.91,0.86 1.91,1.93l-3.82 0zm3.82 -130.24l0 130.24 -3.82 0 0 -130.24 1.91 -1.93 1.91 1.93zm-3.82 0c0,-1.07 0.86,-1.93 1.91,-1.93 1.05,0 1.91,0.86 1.91,1.93l-3.82 0zm1.91 -1.93l0 0 0 3.86 -0 0 -1.91 -1.81 1.91 -2.05zm0 3.86c-1.05,0 -1.91,-0.86 -1.91,-1.93 0,-1.07 0.86,-1.93 1.91,-1.93l0 3.86zm1.37 -10.54l0.54 8.48 -3.81 0.25 -0.54 -8.48 1.91 -2.05 1.91 1.81zm-3.81 0.25c-0.07,-1.06 0.73,-1.98 1.78,-2.05 1.05,-0.07 1.96,0.74 2.03,1.8l-3.81 0.25zm-319.42 -2.05l321.33 0 0 3.86 -321.33 0 -1.89 -2.19 1.89 -1.67zm0 3.86c-1.05,0 -1.91,-0.86 -1.91,-1.93 0,-1.07 0.86,-1.93 1.91,-1.93l0 3.86z"/>
     </g>
    </g>
   </g>
   <polygon class="fil6" points="431.21,1432.86 -0,1432.86 -0,0 431.21,0 "/>
   <path class="fil1" d="M571.79 389.19c8.36,-3.18 21.53,-4.08 34.37,-1.82 12.84,2.25 25.36,7.65 34.78,16.05 9.41,8.4 15.73,19.8 19.72,34.33 3.99,14.54 5.67,32.22 9.38,47.58 0.5,2.07 1.04,4.1 1.6,6.07 0.12,0.2 0.23,0.41 0.34,0.62 1.11,2.12 1.74,4.36 1.93,6.59 3.24,9.44 7.01,17.15 10.29,21.76 4.7,6.63 8.38,6.84 10.03,6.84 1.65,0 1.28,-0.21 1.09,0.21 -0.19,0.42 -0.21,1.47 -3.12,4.62 -2.92,3.15 -8.75,8.38 -16.67,12.62 -7.92,4.24 -17.93,7.48 -33.26,10.72 -2.84,0.6 -5.87,1.2 -9.07,1.78 0.56,7.38 1.08,14.4 1.23,17.96 0,0.06 0.01,0.12 0.01,0.18 9.8,1.45 18.63,3.15 26.05,4.78 11.05,2.43 18.96,4.72 27.27,9.83 8.32,5.11 17.04,13.04 28.81,47.94 1.08,3.21 2.19,6.64 3.32,10.28l11.9 -26.85 240.03 0 -84.28 190.2 0 13.7 231.02 0c8.6,0 15.64,7.04 15.64,15.65 0,8.6 -7.04,15.64 -15.64,15.64l-315.98 0c3.59,3.35 7.54,7.35 12.27,12.15 28.91,29.35 86.72,88.36 115.48,118.16 28.76,29.8 28.46,30.4 28.31,30.69 -0.15,0.3 -0.15,0.3 -7.9,9.24 -5.88,6.79 -16.22,18.72 -30.51,33.2l5.16 -4.85c4.7,4.72 10.38,10.23 16.15,15.45 8.57,7.76 17.35,14.89 33.21,22.66 15.86,7.77 38.79,16.16 55.46,21.48 10.17,3.24 18.01,5.34 23.79,6.5 4.11,-2.62 8.33,-5.25 12.19,-7.37 7.61,-4.19 13.81,-6.41 19.19,-7.16 5.38,-0.76 9.94,-0.05 15.46,2.03 5.52,2.09 12,5.55 15.71,7.39 3.72,1.84 4.68,2.06 4.33,2.75 -0.35,0.7 -2.02,1.88 -24.61,21.17 -7.27,6.21 -16.72,14.3 -26.9,23.03 -6.1,-1.78 -13.17,-3.78 -19.92,-5.51 -10.96,-2.82 -21.07,-4.94 -29.55,-5.86 -8.48,-0.92 -15.34,-0.64 -20.09,0.11 -4.76,0.75 -7.41,1.98 -8.74,2.59 -1.33,0.61 -1.33,0.61 -1.33,0.61 0,0 0,0 11.64,10.17 7.87,6.88 21.06,18.4 32.79,28.11l-25.76 22.13c-21.76,18.7 -21.76,18.7 -28.52,7.96 -6.76,-10.74 -20.27,-32.21 -27.03,-42.95 -6.76,-10.74 -6.76,-10.74 -7.2,-10.69 -0.45,0.05 -1.34,0.16 -4.25,-0.81 -2.91,-0.97 -7.84,-3.01 -12.19,-7.85 -4.35,-4.83 -8.12,-12.45 -10.94,-18.43 -2.83,-5.98 -4.71,-10.31 -5.65,-12.48 -0.45,-1.03 -0.68,-1.57 -0.66,-1.91 -10.04,-9.25 -22.06,-19.21 -33.42,-29.09l6.55 -6.15c-17.1,15.14 -34.45,29.59 -44.6,38.05 -14.3,11.92 -14.3,11.92 -8.94,30.69 5.36,18.77 16.09,56.32 21.46,75.1 5.36,18.77 5.36,18.77 -31.74,19.82 -5.67,0.16 -12.2,0.34 -19.34,0.54 0.5,6.3 1.2,13.57 2.12,20.7 1.47,11.47 3.51,22.59 10.52,38.8 7.01,16.21 18.98,37.49 28.19,52.36 5.63,9.08 10.22,15.76 13.86,20.4 4.83,0.68 9.74,1.43 14.05,2.32 8.51,1.77 14.66,4.11 19.24,7.03 4.58,2.92 7.59,6.42 10.43,11.59 2.84,5.17 5.51,12.02 7.14,15.83 1.63,3.82 2.22,4.6 1.5,4.91 -0.72,0.3 -2.76,0.12 -32.47,0.1 -9.56,-0.01 -22,0 -35.42,0.02 -3.48,-5.32 -7.56,-11.44 -11.56,-17.14 -6.5,-9.26 -12.81,-17.44 -18.66,-23.66 -5.85,-6.21 -11.24,-10.46 -15.34,-12.97 -4.1,-2.52 -6.92,-3.31 -8.33,-3.71 -1.41,-0.4 -1.41,-0.4 -1.41,-0.4 0,0 0,0 2.24,15.29 1.51,10.34 4.05,27.67 6.66,42.68l-33.96 0.08c-28.69,0.07 -28.69,0.07 -26.85,-12.48 1.84,-12.55 5.53,-37.66 7.37,-50.21 1.84,-12.55 1.84,-12.55 1.47,-12.8 -0.37,-0.25 -1.12,-0.75 -2.7,-3.38 -1.58,-2.63 -4,-7.38 -4.17,-13.88 -0.16,-6.5 1.92,-14.74 3.66,-21.12 1.74,-6.38 3.13,-10.9 3.82,-13.16 0.33,-1.08 0.5,-1.64 0.74,-1.88 -1.61,-13.46 -4.25,-28.72 -6.45,-43.51 -24.57,0.69 -48.31,1.36 -64.75,1.82 -37.1,1.04 -37.1,1.04 -36.65,-36.06 0.45,-37.1 1.34,-111.3 1.79,-148.41 0,-0.4 0.01,-0.8 0.01,-1.2 -4.51,5.11 -9.11,9.03 -12.96,11.8 -6.57,4.72 -10.95,6.06 -68.55,6.74 -10.11,0.12 -21.86,0.22 -34.69,0.29 -0.05,26.38 -21.65,47.94 -48.04,47.94l-19.9 0 0 228.38 8.18 0c32.87,0 59.76,26.89 59.76,59.76l-172.48 0c0,-32.87 26.89,-59.76 59.76,-59.76l8.18 0 0 -228.38 -19.9 0c-26.42,0 -48.04,-21.62 -48.04,-48.04 -7.53,-0.06 -14.6,-0.12 -21.07,-0.19 -59.8,-0.67 -68.55,-2.02 -74.45,-5.05 -5.9,-3.03 -8.93,-7.75 -30.82,-84.56 -21.9,-76.81 -62.66,-225.71 -79.67,-304.2 -17.01,-78.49 -10.27,-86.58 -2.86,-92.81 7.41,-6.23 15.5,-10.61 58.28,-13.14 42.78,-2.53 120.27,-3.2 163.89,-3.37 43.63,-0.17 53.4,0.17 61.65,3.54 7.38,3.01 13.55,8.45 18.51,17.76 5.84,-5.33 11.64,-10.17 17.26,-14.3 24.97,-18.33 46.53,-22.48 64.02,-24.68 12.49,-1.57 22.9,-2.15 33.47,-2.26 1,-2.62 2.08,-5.66 3.22,-9.32 -19.19,-0.96 -38.33,-2.86 -50.75,-3.48 -16.91,-0.84 -21.37,0.69 -24.39,1.72 -3.02,1.04 -4.61,1.58 -5.13,1.26 -0.52,-0.32 0.02,-1.5 1.29,-4.26 1.27,-2.77 3.28,-7.12 5.63,-16.35 2.35,-9.22 5.06,-23.31 6.85,-37.41 1.79,-14.09 2.67,-28.19 6.53,-44.19 3.86,-16 10.69,-33.89 19.08,-43.42 8.39,-9.53 18.33,-10.69 24.67,-11.28 6.34,-0.58 9.08,-0.58 12.22,-3.32 3.14,-2.74 6.69,-8.21 15.05,-11.39z"/>
   <path class="fil7 str9" d="M583.06 387.84c-12.84,-2.25 -26.01,-1.36 -34.37,1.82 -8.36,3.18 -11.91,8.66 -15.05,11.39 -3.15,2.74 -5.88,2.74 -12.22,3.32 -6.34,0.58 -16.28,1.75 -24.67,11.28 -8.39,9.53 -15.22,27.42 -19.08,43.42 -3.86,16 -4.74,30.1 -6.53,44.19 -1.79,14.09 -4.5,28.18 -6.85,37.41 -2.35,9.22 -4.36,13.58 -5.63,16.35 -1.27,2.77 -1.81,3.95 -1.29,4.26 0.52,0.32 2.11,-0.23 5.13,-1.26 3.02,-1.04 7.48,-2.57 24.39,-1.72 16.91,0.84 46.28,4.06 71.29,4.05 25.01,-0.01 45.66,-3.25 60.99,-6.49 15.33,-3.24 25.34,-6.48 33.26,-10.72 7.92,-4.24 13.75,-9.48 16.67,-12.62 2.92,-3.15 2.93,-4.2 3.12,-4.62 0.19,-0.42 0.56,-0.21 -1.09,-0.21 -1.65,0 -5.32,-0.21 -10.03,-6.84 -4.71,-6.63 -10.45,-19.68 -14.15,-35.04 -3.71,-15.36 -5.38,-33.04 -9.38,-47.58 -3.99,-14.54 -10.31,-25.94 -19.72,-34.33 -9.41,-8.4 -21.93,-13.8 -34.78,-16.05z"/>
   <path class="fil8" d="M434.5 656.05c-4.21,-12.3 -7.92,-28.8 -13.14,-40.26 -5.22,-11.45 -11.96,-17.86 -20.21,-21.22 -8.25,-3.37 -18.02,-3.71 -61.65,-3.54 -43.63,0.17 -121.11,0.84 -163.89,3.37 -42.78,2.53 -50.87,6.91 -58.28,13.14 -7.41,6.23 -14.15,14.32 2.86,92.81 17.01,78.49 57.77,227.39 79.67,304.2 21.9,76.81 24.93,81.52 30.82,84.56 5.89,3.03 14.65,4.38 74.45,5.05 59.8,0.67 170.63,0.67 228.23,0 57.61,-0.67 61.98,-2.02 68.55,-6.74 6.57,-4.72 15.33,-12.8 22.07,-24.42 6.74,-11.62 11.45,-26.78 9.49,-42.41 -1.96,-15.62 -10.6,-31.71 -24.59,-54.62 -13.98,-22.91 -33.3,-52.63 -54.28,-78.65 -20.98,-26.02 -43.64,-48.33 -59.47,-73.76 -15.83,-25.43 -24.85,-53.99 -31.55,-76.02 -6.7,-22.03 -11.08,-37.52 -15.62,-49.31 -4.55,-11.79 -9.27,-19.88 -13.48,-32.17z"/>
   <g style="clip-path:url(#id1)">
    <g>
     <path id="_1_1" class="fil9" d="M579.31 573.48c15.88,1.68 30.07,4.26 41.12,6.69 11.05,2.43 18.96,4.72 27.27,9.83 8.32,5.11 17.04,13.04 28.81,47.95 1.08,3.21 2.19,6.64 3.32,10.28l11.9 -26.85 240.03 0 -84.28 190.21 0 13.7 -240.03 0 -101.14 0c-3.93,1.06 -11.09,1.45 -31.64,1.55 -29.26,0.14 -85.68,-0.31 -116.7,-1.24 -31.02,-0.93 -36.65,-2.34 -40.94,-4.1 -4.29,-1.76 -7.24,-3.87 -10.06,-7.03 -2.81,-3.16 -5.49,-7.39 -6.96,-12.59 -1.48,-5.2 -1.76,-11.4 -0.14,-19.76 1.62,-8.37 5.13,-18.92 9.64,-28.42 2.07,-4.36 4.34,-8.49 6.56,-12.14l103.78 13.89c0.02,-0.03 0.04,-0.07 0.05,-0.1 -40.66,-5.41 -81.31,-10.81 -121.97,-16.22 13.42,-19.36 26.85,-38.72 47.76,-64.67 20.91,-25.94 49.3,-58.47 74.28,-76.8 24.98,-18.34 46.53,-22.48 64.02,-24.68 17.49,-2.2 30.91,-2.46 46.4,-2.2 15.49,0.26 33.04,1.03 48.92,2.71zm-239.89 283.92c8.34,-14.15 12.52,-17.14 79.57,-18.18 67.05,-1.04 196.98,-0.15 261.95,0.15 64.96,0.3 64.96,0 93.87,29.35 28.91,29.35 86.72,88.36 115.48,118.16 28.76,29.8 28.46,30.4 28.31,30.69 -0.15,0.3 -0.15,0.3 -7.9,9.24 -1.15,1.33 -2.47,2.85 -3.96,4.56 5.09,4.74 10.79,9.88 16.56,14.8 11.01,9.4 22.25,18.02 42.38,27.17 20.13,9.15 49.14,18.84 70.19,24.89 12.85,3.69 22.74,6.04 30.01,7.28 5.05,-3.43 10.24,-6.87 14.99,-9.66 9.38,-5.51 17.06,-8.51 23.76,-9.65 6.71,-1.14 12.44,-0.42 19.43,1.99 6.98,2.41 15.22,6.52 19.94,8.69 4.72,2.17 5.93,2.4 5.52,3.29 -0.42,0.89 -2.46,2.43 -30.05,27.38 -8.88,8.04 -20.41,18.5 -32.85,29.8 -7.7,-2.02 -16.63,-4.26 -25.14,-6.19 -13.82,-3.13 -26.55,-5.42 -37.2,-6.27 -10.65,-0.85 -19.22,-0.26 -25.15,0.86 -5.93,1.11 -9.21,2.74 -10.85,3.55 -1.64,0.81 -1.64,0.81 -1.64,0.81 0,0 0,0 14.93,12.31 10.09,8.33 27.02,22.28 42.06,34.01l-31.45 28.63c-26.57,24.18 -26.57,24.18 -35.41,10.99 -8.84,-13.2 -26.53,-39.6 -35.38,-52.8 -8.85,-13.2 -8.85,-13.2 -9.4,-13.12 -0.56,0.08 -1.67,0.25 -5.35,-0.86 -3.68,-1.11 -9.92,-3.49 -15.54,-9.38 -5.62,-5.89 -10.61,-15.29 -14.36,-22.67 -3.75,-7.38 -6.26,-12.74 -7.52,-15.42 -0.6,-1.28 -0.91,-1.95 -0.9,-2.37 -11.44,-9.95 -24.86,-20.55 -37.92,-31.16 -18.75,16.82 -38.76,33.49 -49.97,42.84 -14.3,11.92 -14.3,11.92 -8.94,30.7 5.36,18.77 16.09,56.32 21.46,75.1 5.36,18.77 5.36,18.77 -31.74,19.82 -1.88,0.05 -3.85,0.11 -5.91,0.17 0.24,2.05 0.48,4.12 0.75,6.17 1.85,14.36 4.4,28.29 13.17,48.59 8.77,20.29 23.77,46.95 35.31,65.57 7.04,11.37 12.8,19.74 17.35,25.55 6.05,0.85 12.2,1.79 17.6,2.91 10.65,2.21 18.36,5.14 24.09,8.8 5.74,3.66 9.51,8.04 13.06,14.52 3.55,6.48 6.9,15.05 8.94,19.83 2.04,4.78 2.78,5.77 1.88,6.14 -0.9,0.38 -3.45,0.15 -40.65,0.12 -11.98,-0.01 -27.55,0.01 -44.35,0.03 -4.36,-6.66 -9.46,-14.32 -14.48,-21.46 -8.14,-11.6 -16.04,-21.84 -23.36,-29.62 -7.32,-7.78 -14.07,-13.09 -19.21,-16.25 -5.14,-3.16 -8.66,-4.15 -10.43,-4.65 -1.76,-0.5 -1.76,-0.5 -1.76,-0.5 0,0 0,0 2.8,19.15 1.89,12.95 5.07,34.65 8.34,53.44l-42.53 0.1c-35.93,0.09 -35.93,0.09 -33.62,-15.63 2.3,-15.72 6.92,-47.16 9.22,-62.88 2.31,-15.72 2.31,-15.72 1.84,-16.03 -0.47,-0.31 -1.4,-0.94 -3.39,-4.24 -1.98,-3.29 -5.01,-9.25 -5.22,-17.38 -0.21,-8.14 2.4,-18.46 4.58,-26.44 2.18,-7.99 3.91,-13.65 4.78,-16.48 0.42,-1.35 0.63,-2.05 0.93,-2.36 -1.3,-10.9 -3.14,-22.74 -5.03,-34.76 -23.98,0.67 -47.03,1.32 -63.11,1.77 -37.1,1.04 -37.1,1.04 -36.65,-36.06 0.45,-37.1 1.34,-111.3 1.79,-148.41 0.45,-37.1 0.45,-37.1 -39.34,-37.1 -39.78,0 -119.35,0 -165.09,-3.13 -6.45,-0.44 -12.23,-0.94 -17.42,-1.51 -31.64,-3.46 -41.61,-9.28 -49.93,-17.86 -9.69,-9.98 -17.14,-23.69 -20.11,-40.08 -2.98,-16.39 -1.49,-35.46 5.51,-57.66 7,-22.2 19.52,-47.53 27.86,-61.69z"/>
    </g>
   </g>
   <path class="fil6 str9" d="M434.5 656.05c-4.21,-12.3 -7.92,-28.8 -13.14,-40.26 -5.22,-11.45 -11.96,-17.86 -20.21,-21.22 -8.25,-3.37 -18.02,-3.71 -61.65,-3.54 -43.63,0.17 -121.11,0.84 -163.89,3.37 -42.78,2.53 -50.87,6.91 -58.28,13.14 -7.41,6.23 -14.15,14.32 2.86,92.81 17.01,78.49 57.77,227.39 79.67,304.2 21.9,76.81 24.93,81.52 30.82,84.56 5.89,3.03 14.65,4.38 74.45,5.05 59.8,0.67 170.63,0.67 228.23,0 57.61,-0.67 61.98,-2.02 68.55,-6.74 6.57,-4.72 15.33,-12.8 22.07,-24.42 6.74,-11.62 11.45,-26.78 9.49,-42.41 -1.96,-15.62 -10.6,-31.71 -24.59,-54.62 -13.98,-22.91 -33.3,-52.63 -54.28,-78.65 -20.98,-26.02 -43.64,-48.33 -59.47,-73.76 -15.83,-25.43 -24.85,-53.99 -31.55,-76.02 -6.7,-22.03 -11.08,-37.52 -15.62,-49.31 -4.55,-11.79 -9.27,-19.88 -13.48,-32.17z"/>
   <path class="fil10 str9" d="M637.38 580.56c-11.05,-2.43 -25.25,-5.02 -41.12,-6.69 -15.88,-1.68 -33.43,-2.45 -48.92,-2.71 -15.49,-0.26 -28.91,0 -46.4,2.2 -17.49,2.2 -39.04,6.35 -64.02,24.68 -24.98,18.34 -53.37,50.86 -74.28,76.8 -20.91,25.94 -34.33,45.3 -47.76,64.66 40.66,5.41 81.31,10.81 121.97,16.22 0,0 0,0 0,0 -12.65,23.23 -25.3,46.47 -31.62,58.08 -6.32,11.62 -6.32,11.62 23.49,11.62 29.82,0 89.45,0 119.39,0 29.94,0 30.2,0 38.21,-14.97 8,-14.97 23.75,-44.92 31.62,-59.76 7.87,-14.84 7.87,-14.59 8.84,-2.69 0.97,11.89 2.9,35.41 4.84,58.93 34.41,-3.32 68.83,-6.64 103.24,-9.95 -14.81,-61.87 -29.62,-123.74 -41.39,-158.64 -11.77,-34.9 -20.5,-42.84 -28.81,-47.94 -8.32,-5.11 -16.22,-7.39 -27.27,-9.83z"/>
   <path class="fil6 str9" d="M430.52 767.34c19.81,-33.7 39.61,-67.4 59.42,-101.11"/>
   <path class="fil11 str9" d="M333.01 741.93c-2.22,3.65 -4.49,7.78 -6.56,12.14 -4.5,9.5 -8.02,20.05 -9.64,28.42 -1.62,8.37 -1.34,14.56 0.14,19.77 1.48,5.2 4.15,9.43 6.96,12.59 2.81,3.17 5.77,5.27 10.06,7.03 4.29,1.76 9.92,3.17 40.94,4.1 31.02,0.93 87.43,1.38 116.7,1.24 29.26,-0.14 31.37,-0.87 35.67,-3.29 4.3,-2.42 10.79,-6.52 16.45,-12.34 5.66,-5.82 10.49,-13.38 13.02,-17.47 2.54,-4.09 2.77,-4.73 2.91,-5.77 0.14,-1.04 0.17,-2.47 0.49,-1.71 0.32,0.76 0.92,3.72 1.82,6.22 0.9,2.5 2.1,4.53 3.97,5.69 1.87,1.15 4.41,1.43 6.75,0.73 2.33,-0.7 4.47,-2.36 5.78,-4.39 1.31,-2.03 1.81,-4.43 2.05,-5.85 0.23,-1.42 0.2,-1.87 0.44,-1.6 0.24,0.27 0.76,1.27 1.53,2.09 0.77,0.83 1.79,1.48 3.22,1.43 1.42,-0.06 3.24,-0.82 4.95,-3.25 1.71,-2.43 3.31,-6.52 2.71,-12.09 -0.61,-5.56 -3.42,-12.6 -6.19,-17.09 -2.77,-4.49 -5.5,-6.44 -8.92,-8.66 -3.43,-2.22 -7.56,-4.72 -8.65,-5.51 -1.1,-0.79 0.83,0.14 2.22,0.68 1.39,0.53 2.23,0.68 4.69,1.59 2.46,0.91 6.54,2.6 9.71,4.29 3.16,1.69 5.42,3.38 7.39,4.57 1.97,1.2 3.66,1.9 5.2,1.83 1.55,-0.07 2.95,-0.91 4.15,-2.25 1.2,-1.34 3,-3.27 2.25,-5.91 -4.28,-14.97 -41.42,-26.06 -58.88,-23.56 -4.92,0.7 -10.13,1.41 -13.5,3.45 -3.38,2.04 -4.92,5.42 -9.57,13.44 -4.64,8.02 -12.38,20.68 -16.25,27.01 -3.87,6.33 -3.87,6.33 -16.34,5.8 -12.48,-0.53 -37.43,-1.6 -49.91,-2.13 -12.48,-0.53 -12.48,-0.53 -9.86,-5.07 1.67,-2.9 4.41,-7.65 6.78,-12.13l-104.67 -14.01z"/>
   <path class="fil6 str9" d="M437.71 773.01c-17.58,-1.32 -35.15,-2.64 -52.73,-3.96"/>
   <path class="fil11 str9" d="M608.44 533.06c0.02,5.59 2.52,34.02 2.88,42.53 0.36,8.52 1.45,20.8 1.76,28.07 0.31,7.27 -0.04,12.13 -6.1,15.24 -6.06,3.11 -17.82,4.48 -28.26,3.37 -10.44,-1.11 -19.54,-4.69 -27.99,-10.31 -8.44,-5.63 -16.22,-13.3 -19.45,-18.99 -3.22,-5.7 -1.89,-9.42 0.01,-14.1 1.9,-4.69 4.36,-10.34 7.18,-19.87 2.82,-9.52 6,-22.92 7.87,-30.98 0.5,-2.14 0.9,-3.9 1.2,-5.38l0.1 0.05c7.25,3.71 50.68,8.84 60.79,10.36z"/>
   <path class="fil6 str9" d="M564.65 530.92c5.27,2.54 10.54,5.08 16.84,5.86 6.3,0.78 13.63,-0.2 20.96,-1.18"/>
   <path class="fil6 str9" d="M623.49 740.79c6.28,-14.34 12.56,-28.68 18.84,-43.02"/>
   <g>
    <path class="fil11 str10" d="M833.5 1389.91c-4.7,-0.66 -9.31,-1.25 -13.21,-1.84 -7.89,-1.2 -12.81,-2.4 -16.34,-3.58 -3.53,-1.19 -5.68,-2.36 -17.95,-15.51 -12.27,-13.16 -34.67,-38.3 -45.86,-50.87 -11.2,-12.57 -11.2,-12.57 -12.54,-13.06 -1.34,-0.49 -4.02,-1.47 -5.36,-1.96 -0.7,-0.26 -1.04,-0.38 -1.29,-0.11 -1.62,-13.55 -4.29,-28.93 -6.5,-43.82l64.24 -3.03c0.5,6.64 1.24,14.52 2.23,22.24 1.47,11.47 3.51,22.59 10.52,38.8 7.01,16.21 18.98,37.49 28.19,52.36 5.63,9.08 10.22,15.76 13.86,20.4z"/>
    <path class="fil7 str10" d="M884.36 1426.68c-1.63,-3.82 -4.3,-10.66 -7.14,-15.83 -2.84,-5.17 -5.85,-8.67 -10.43,-11.59 -4.58,-2.92 -10.73,-5.26 -19.24,-7.03 -8.51,-1.77 -19.37,-2.96 -27.26,-4.16 -7.89,-1.2 -12.81,-2.4 -16.34,-3.58 -3.53,-1.19 -5.68,-2.36 -17.95,-15.51 -12.27,-13.16 -34.67,-38.3 -45.86,-50.87 -11.2,-12.57 -11.2,-12.57 -12.54,-13.06 -1.34,-0.49 -4.02,-1.47 -5.36,-1.96 -1.34,-0.49 -1.34,-0.49 -2.03,1.77 -0.69,2.26 -2.08,6.78 -3.82,13.16 -1.74,6.38 -3.82,14.62 -3.66,21.12 0.17,6.5 2.58,11.25 4.17,13.88 1.58,2.63 2.33,3.13 2.7,3.38 0.37,0.25 0.37,0.25 -1.47,12.8 -1.84,12.55 -5.52,37.66 -7.37,50.21 -1.84,12.55 -1.84,12.55 26.85,12.48l33.96 -0.08c-2.61,-15.01 -5.15,-32.34 -6.66,-42.68 -2.24,-15.29 -2.24,-15.29 -2.24,-15.29 0,0 0,0 1.41,0.4 1.41,0.4 4.22,1.19 8.33,3.71 4.1,2.52 9.49,6.76 15.34,12.97 5.85,6.21 12.15,14.39 18.66,23.66 4,5.7 8.08,11.82 11.56,17.14 13.42,-0.02 25.85,-0.03 35.42,-0.02 29.71,0.02 31.74,0.2 32.47,-0.1 0.72,-0.3 0.13,-1.09 -1.5,-4.91z"/>
   </g>
   <path class="fil12 str9" d="M356.36 857.78c-8.34,14.15 -20.86,39.49 -27.86,61.69 -7,22.2 -8.49,41.27 -5.51,57.66 2.98,16.39 10.43,30.1 20.11,40.08 9.68,9.98 21.61,16.24 67.35,19.37 45.74,3.13 125.31,3.13 165.09,3.13 39.78,0 39.78,0 39.34,37.1 -0.45,37.1 -1.34,111.3 -1.79,148.41 -0.45,37.1 -0.45,37.1 36.65,36.06 37.1,-1.04 111.3,-3.13 148.41,-4.17 37.1,-1.04 37.1,-1.04 31.74,-19.82 -5.36,-18.77 -16.09,-56.32 -21.46,-75.1 -5.36,-18.77 -5.36,-18.77 8.94,-30.69 14.3,-11.92 42.91,-35.76 64.97,-56.62 22.05,-20.86 37.55,-38.74 45.3,-47.68 7.75,-8.94 7.75,-8.94 7.9,-9.24 0.15,-0.3 0.45,-0.89 -28.31,-30.69 -28.76,-29.8 -86.57,-88.8 -115.48,-118.16 -28.91,-29.35 -28.91,-29.06 -93.87,-29.35 -64.97,-0.3 -194.9,-1.19 -261.95,-0.15 -67.05,1.04 -71.22,4.02 -79.57,18.18z"/>
   <path class="fil6 str9" d="M393.02 1035.07c116.12,-32.72 232.24,-65.45 290.89,-81.81 58.65,-16.36 59.85,-16.36 60.44,-15.62 0.6,0.75 0.6,2.24 14.75,52.3 14.16,50.07 42.47,148.7 56.62,198.02 14.16,49.32 14.16,49.32 14.16,49.32 0,0 0,0 0,0"/>
   <path class="fil13 str9" d="M326.22 1094.35l172.48 0 0 0c0,26.42 -21.62,48.04 -48.04,48.04l-76.4 0c-26.42,0 -48.04,-21.62 -48.04,-48.04l0 -0z"/>
   <polygon class="fil13 str9" points="394.16,1400.77 430.75,1400.77 430.75,1142.39 394.16,1142.39 "/>
   <path class="fil6 str9" d="M586.8 790.85c-2.02,0.07 -4.04,0.14 -5.34,-2.24 -1.3,-2.37 -1.88,-7.19 -2.54,-10.8 -0.66,-3.61 -1.4,-6.03 -4.33,-9.09 -2.93,-3.07 -8.03,-6.78 -14.21,-9.61 -6.18,-2.83 -13.43,-4.79 -20.68,-6.75"/>
   <path class="fil6 str9" d="M531.09 763.23c7.89,3.53 15.79,7.06 20.71,10.03 4.92,2.97 6.87,5.39 7.58,8.1 0.71,2.72 0.17,5.74 -1.03,8.39 -1.2,2.65 -3.07,4.93 -5.69,6 -2.62,1.07 -5.97,0.92 -9.13,0.6 -3.16,-0.33 -6.12,-0.83 -8.35,-2.19 -2.22,-1.35 -3.7,-3.56 -4.21,-5.68 -0.51,-2.12 -0.04,-4.17 0.42,-6.21"/>
   <path class="fil6 str9" d="M526.73 775.8c5.62,3.46 11.23,6.91 16.85,10.37"/>
   <path class="fil6 str9" d="M532.68 792.81c0.97,3.23 1.94,6.46 1.57,9.41 -0.36,2.95 -2.06,5.61 -3.75,8.28"/>
   <path class="fil6 str9" d="M577.18 748.24c-3.8,-2.21 -7.6,-4.42 -12.28,-5.82 -4.68,-1.41 -10.24,-2.01 -15.79,-2.61"/>
   <path class="fil8 str9" d="M229.92 825.66l865.53 0c8.6,0 15.64,7.04 15.64,15.64l0 0c0,8.6 -7.04,15.64 -15.64,15.64l-865.53 0c-8.6,0 -15.64,-7.04 -15.64,-15.64l0 -0c0,-8.6 7.04,-15.64 15.64,-15.64z"/>
   <g>
    <g>
     <polygon class="fil14 str9" points="864.42,811.96 423.04,811.96 423.04,825.66 864.42,825.66 "/>
     <polygon class="fil14 str9" points="624.4,811.96 423.04,811.96 423.04,825.66 624.4,825.66 "/>
     <polygon class="fil14 str9" points="864.42,811.96 624.4,811.96 708.67,621.76 948.7,621.76 "/>
    </g>
    <path class="fil15" d="M793.05 702.19c-6.72,0 -15.08,6.57 -18.67,14.67 -3.59,8.1 -1.05,14.67 5.67,14.67 6.72,0 15.08,-6.57 18.67,-14.67 3.59,-8.1 1.05,-14.67 -5.67,-14.67z"/>
   </g>
   <path class="fil6 str11" d="M635.36 483.36c5.69,0.5 10.8,3.95 13.52,9.14 4.33,8.27 1.35,18.36 -6.65,22.55 -2.54,1.33 -5.4,1.94 -8.28,1.78"/>
   <path class="fil11 str9" d="M546.58 445.6c1.83,5.65 5.01,15.65 6.1,23.53 1.09,7.88 0.09,13.65 -0.94,17.42 -1.04,3.78 -2.11,5.56 -3.05,5.89 -0.94,0.33 -1.76,-0.81 -3.83,-2.85 -2.07,-2.04 -5.4,-4.99 -9.67,-6.19 -4.27,-1.2 -9.5,-0.67 -13.53,1.05 -4.03,1.72 -6.87,4.61 -8.36,8.22 -1.49,3.61 -1.65,7.94 -0.34,11.9 1.3,3.96 4.06,7.57 7.64,10.06 3.58,2.49 7.99,3.87 12.71,4.67 4.72,0.81 9.77,1.04 14.35,3.38 4.58,2.35 8.7,6.8 13.08,10.42 4.38,3.61 9.01,6.39 14.17,8.58 5.17,2.19 10.86,3.8 16.43,4.69 5.57,0.89 11.01,1.05 16.19,0.07 5.18,-0.98 10.09,-3.1 14.3,-7.32 4.21,-4.21 7.72,-10.51 9.95,-16.48 2.23,-5.97 3.19,-11.6 3.57,-18.66 0.38,-7.06 0.18,-15.54 -1.98,-25.04 -2.16,-9.5 -6.29,-20 -8.64,-25.6 -2.36,-5.6 -2.94,-6.3 -3.24,-6.65 -0.29,-0.35 -0.29,-0.35 -6.04,-1.41 -5.75,-1.07 -17.24,-3.19 -26.04,-3.61 -8.81,-0.41 -14.93,0.9 -19.79,1.21 -4.86,0.31 -8.45,-0.37 -11.16,-1.08 -2.71,-0.7 -4.54,-1.42 -6.14,-2.03 -1.6,-0.61 -2.98,-1.12 -4.36,-1.51 -1.38,-0.39 -2.75,-0.68 -3.21,-0.16 -0.46,0.52 0.01,1.84 1.84,7.49z"/>
   <path class="fil8" d="M623.73 463.85c-1.36,1.04 -3.56,2.35 -6.59,3.25 -3.03,0.9 -6.88,1.37 -8.81,1.61 -1.93,0.24 -1.93,0.24 -1.94,-0.99 -0.02,-1.23 -0.05,-3.68 0.45,-5.73 0.51,-2.05 1.55,-3.69 2.69,-4.77 1.14,-1.07 2.37,-1.58 3.52,-1.95 1.16,-0.37 2.24,-0.6 3.83,-0.2 1.59,0.4 3.68,1.44 5.31,2.59 1.63,1.14 2.78,2.38 3.1,3.39 0.32,1 -0.2,1.76 -1.56,2.8z"/>
   <path class="fil8" d="M591.17 473.98c-1.44,1.2 -3.64,2.87 -6.67,4.11 -3.03,1.25 -6.9,2.08 -9.78,2.51 -2.88,0.43 -4.78,0.47 -5.73,0.48 -0.95,0.02 -0.95,0.02 -0.56,-1.57 0.39,-1.59 1.16,-4.76 2.09,-7.03 0.93,-2.28 2.01,-3.66 3.39,-4.65 1.38,-1 3.07,-1.6 4.96,-1.94 1.89,-0.34 3.98,-0.4 6.04,0.19 2.06,0.59 4.08,1.84 5.58,2.82 1.5,0.98 2.48,1.69 2.63,2.41 0.15,0.73 -0.52,1.47 -1.96,2.67z"/>
   <path class="fil6 str12" d="M557.33 459c2.08,-2.11 4.17,-4.22 7.58,-6.23 3.41,-2.01 8.16,-3.92 12.9,-5.83"/>
   <path class="fil6 str9" d="M574.8 498.56c2.82,2.42 5.64,4.85 8.92,6.62 3.28,1.77 7.03,2.89 10.91,3.22 3.89,0.33 7.92,-0.13 11.01,-1.47 3.09,-1.34 5.25,-3.57 7.41,-5.8"/>
   <path class="fil6 str13" d="M523.55 497.06c1.43,-1.12 2.85,-2.25 4.64,-2.55 1.79,-0.31 3.94,0.2 6.32,1.33 2.37,1.13 4.97,2.88 7.56,4.62"/>
   <path class="fil6 str11" d="M538.5 511.36c8.87,0.04 16.74,6.13 19.28,14.92 3.13,10.86 -2.84,22.12 -13.35,25.16 -10.51,3.03 -21.57,-3.31 -24.7,-14.17 -1.84,-6.36 -0.58,-13.18 3.36,-18.32"/>
   <path class="fil6 str13" d="M568.06 480.22c0.45,-2.77 0.91,-5.54 1.78,-7.69 0.87,-2.15 2.17,-3.67 3.61,-4.72 1.44,-1.05 3.03,-1.62 4.81,-1.94 1.78,-0.32 3.75,-0.38 5.69,0.18 1.94,0.56 3.85,1.73 5.26,2.65 1.41,0.92 2.34,1.59 3.26,2.26"/>
   <path class="fil6 str13" d="M606.41 468.2c-0.03,-2.32 -0.07,-4.64 0.41,-6.58 0.48,-1.94 1.47,-3.5 2.55,-4.52 1.08,-1.02 2.24,-1.49 3.52,-1.87 1.28,-0.38 2.68,-0.65 4.4,-0.31 1.71,0.34 3.74,1.29 5.18,2.34 1.44,1.05 2.3,2.2 3.16,3.36"/>
   <g>
    <g>
     <path class="fil6 str11" d="M563.87 464.64c-7.39,7.08 -7.68,18.77 -0.65,26.11 7.03,7.34 18.72,7.54 26.11,0.46 7.39,-7.08 7.68,-18.77 0.65,-26.11 -7.03,-7.34 -18.72,-7.54 -26.11,-0.46z"/>
     <path class="fil6 str11" d="M609 450.15c-7.39,7.08 -7.68,18.77 -0.65,26.11 7.03,7.34 18.72,7.54 26.11,0.46 7.39,-7.08 7.68,-18.77 0.65,-26.11 -7.03,-7.34 -18.72,-7.54 -26.11,-0.46z"/>
     <path class="fil6 str11" d="M603.5 460.57c-1.27,-0.17 -2.53,-0.34 -3.85,-0.36 -1.32,-0.02 -2.69,0.11 -3.9,0.56 -1.21,0.45 -2.26,1.22 -3.2,2 -0.94,0.78 -1.76,1.55 -2.58,2.33"/>
    </g>
    <path class="fil6 str9" d="M599.14 465.98c3.24,6.25 6.49,12.49 8.13,15.73 1.64,3.24 1.68,3.47 1.74,4.15 0.06,0.68 0.15,1.81 -0.2,2.87 -0.35,1.06 -1.13,2.06 -2.65,3.15 -1.53,1.09 -3.8,2.28 -6.07,3.47"/>
   </g>
   <path class="fil13 str9" d="M326.22 1430.53l172.48 0 0 0c0,-32.87 -26.89,-59.76 -59.76,-59.76l-52.96 0c-32.87,0 -59.76,26.89 -59.76,59.76l0 0z"/>
   <g>
    <path class="fil11 str10" d="M1030.88 1121.63c-4,2.55 -7.89,5.1 -11.23,7.18 -6.78,4.22 -11.29,6.5 -14.75,7.89 -3.45,1.39 -5.85,1.9 -23.72,-0.13 -17.88,-2.03 -51.23,-6.58 -67.91,-8.86 -16.68,-2.28 -16.68,-2.28 -18.02,-1.78 -1.34,0.5 -4.01,1.49 -5.35,1.99 -0.7,0.26 -1.03,0.38 -1.06,0.76 -10.04,-9.25 -22.06,-19.21 -33.42,-29.09l46.85 -44.05c4.7,4.72 10.38,10.23 16.15,15.45 8.57,7.76 17.35,14.89 33.21,22.66 15.86,7.77 38.79,16.16 55.46,21.48 10.17,3.24 18.01,5.34 23.79,6.5z"/>
    <path class="fil7 str10" d="M1093.44 1116.53c-3.72,-1.84 -10.19,-5.31 -15.71,-7.39 -5.52,-2.09 -10.08,-2.79 -15.46,-2.03 -5.38,0.76 -11.58,2.98 -19.19,7.16 -7.61,4.18 -16.65,10.33 -23.42,14.55 -6.78,4.22 -11.29,6.5 -14.75,7.89 -3.45,1.39 -5.85,1.9 -23.72,-0.13 -17.88,-2.03 -51.23,-6.58 -67.91,-8.86 -16.68,-2.28 -16.68,-2.28 -18.02,-1.78 -1.34,0.5 -4.01,1.49 -5.35,1.99 -1.34,0.5 -1.34,0.5 -0.4,2.67 0.94,2.17 2.82,6.5 5.65,12.48 2.83,5.98 6.59,13.6 10.94,18.43 4.35,4.83 9.28,6.88 12.19,7.85 2.91,0.97 3.81,0.86 4.25,0.81 0.45,-0.05 0.45,-0.05 7.2,10.69 6.76,10.74 20.27,32.21 27.03,42.95 6.76,10.74 6.76,10.74 28.52,-7.96l25.76 -22.13c-11.74,-9.71 -24.93,-21.23 -32.79,-28.11 -11.64,-10.17 -11.64,-10.17 -11.64,-10.17 0,0 0,0 1.33,-0.61 1.33,-0.61 3.98,-1.84 8.74,-2.59 4.76,-0.75 11.61,-1.03 20.09,-0.11 8.48,0.92 18.59,3.04 29.55,5.86 6.75,1.73 13.82,3.73 19.92,5.51 10.19,-8.73 19.63,-16.82 26.9,-23.03 22.59,-19.29 24.26,-20.47 24.61,-21.17 0.35,-0.7 -0.61,-0.91 -4.33,-2.75z"/>
   </g>
   <path class="fil7" d="M581.49 465.48c3.66,0 6.63,2.97 6.63,6.63 0,3.66 -2.97,6.63 -6.63,6.63 -3.66,0 -6.63,-2.97 -6.63,-6.63 0,-3.66 2.97,-6.63 6.63,-6.63z"/>
   <path class="fil7" d="M616.8 453.52c3.66,0 6.63,2.97 6.63,6.63 0,3.66 -2.97,6.63 -6.63,6.63 -3.66,0 -6.63,-2.97 -6.63,-6.63 0,-3.66 2.97,-6.63 6.63,-6.63z"/>
   <g>
    <path class="fil9" d="M338.6 108.27c78.98,0 143,63.86 143,142.64 0,78.78 -64.02,142.64 -143,142.64 -78.98,0 -143,-63.86 -143,-142.64 0,-78.78 64.02,-142.64 143,-142.64z"/>
    <path class="fil16 str1" d="M348.66 90.72c80,0 144.85,64.85 144.85,144.85 0,80 -64.85,144.85 -144.85,144.85 -80,0 -144.85,-64.85 -144.85,-144.85 0,-80 64.85,-144.85 144.85,-144.85z"/>
    <path class="fil12" d="M348.66 98c75.98,0 137.58,61.6 137.58,137.58 0,75.98 -61.6,137.58 -137.58,137.58 -75.98,0 -137.58,-61.6 -137.58,-137.58 0,-75.98 61.6,-137.58 137.58,-137.58z"/>
    <path class="fil16" d="M348.66 105.81c71.67,0 129.76,58.1 129.76,129.76 0,71.67 -58.1,129.76 -129.76,129.76 -71.67,0 -129.76,-58.1 -129.76,-129.76 0,-71.67 58.1,-129.76 129.76,-129.76z"/>
    <path class="fil17 str1" d="M348.66 109.55c69.6,0 126.03,56.42 126.03,126.03 0,69.6 -56.42,126.03 -126.03,126.03 -69.6,0 -126.03,-56.42 -126.03,-126.03 0,-69.6 56.42,-126.03 126.03,-126.03z"/>
    <path class="fil12" d="M348.66 115.07c66.56,0 120.51,53.95 120.51,120.51 0,66.56 -53.95,120.51 -120.51,120.51 -66.56,0 -120.51,-53.95 -120.51,-120.51 0,-66.56 53.95,-120.51 120.51,-120.51z"/>
    <path class="fil18" d="M465.16 266.47c-13.64,51.59 -60.63,89.62 -116.51,89.62 -66.56,0 -120.51,-53.95 -120.51,-120.51 0,-49.63 30,-92.24 72.86,-110.71 -21.74,19.95 -35.38,48.6 -35.38,80.43 0,60.28 48.86,109.14 109.14,109.14 37.61,0 70.77,-19.02 90.4,-47.97z"/>
    <path class="fil19 str14" d="M348.66 225.87c5.36,0 9.71,4.35 9.71,9.71 0,5.36 -4.35,9.71 -9.71,9.71 -5.36,0 -9.71,-4.35 -9.71,-9.71 0,-5.36 4.35,-9.71 9.71,-9.71z"/>
    <path class="fil19 str14" d="M324.49 147.48l0 0c1.87,-0.5 3.82,0.62 4.32,2.49l21.86 81.28c0.5,1.87 -0.62,3.82 -2.49,4.32l-0 0c-1.87,0.5 -3.82,-0.62 -4.32,-2.49l-21.86 -81.28c-0.5,-1.87 0.62,-3.82 2.49,-4.32z"/>
    <path class="fil19 str14" d="M407.24 255.28l0 0c-0.6,1.84 -2.61,2.86 -4.45,2.25l-51.1 -16.76c-1.84,-0.6 -2.86,-2.61 -2.25,-4.45l0 0c0.6,-1.84 2.61,-2.86 4.45,-2.25l51.1 16.76c1.84,0.6 2.86,2.61 2.25,4.45z"/>
    <path class="fil20" d="M413.75 191.42c-1.77,1.53 -3.08,3.48 -3.89,5.59 -0.81,2.11 -1.13,4.37 -0.97,6.51 0.16,2.14 0.8,4.15 1.77,5.91 0.97,1.76 2.28,3.26 3.83,4.36 1.55,1.1 3.34,1.8 5.2,2.11 1.87,0.3 3.81,0.21 5.7,-0.19 1.88,-0.4 3.7,-1.1 5.55,-2.62 1.85,-1.52 3.73,-3.85 4.8,-6 1.07,-2.15 1.32,-4.13 1.31,-6.05 -0.02,-1.92 -0.3,-3.77 -1.31,-5.7 -1.01,-1.93 -2.73,-3.94 -4.48,-5.25 -1.76,-1.31 -3.54,-1.91 -5.43,-2.2 -1.88,-0.29 -3.86,-0.25 -5.97,0.32 -2.11,0.57 -4.34,1.69 -6.11,3.22zm-122.94 -33.57c3.56,-2.84 9.7,-7.35 16.42,-10.74 6.73,-3.4 14.04,-5.68 21.29,-7.22 7.25,-1.53 14.43,-2.32 22.69,-1.89 8.26,0.42 17.6,2.06 26.48,5.26 8.88,3.2 17.31,7.97 22.53,12.08 5.22,4.11 7.25,7.58 8.1,10.74 0.85,3.17 0.52,6.04 -0.65,8.78 -1.18,2.74 -3.2,5.35 -5.68,6.99 -2.48,1.63 -5.42,2.29 -8.03,1.99 -2.61,-0.29 -4.9,-1.53 -7.67,-3.4 -2.78,-1.86 -6.04,-4.34 -10.19,-6.99 -4.15,-2.65 -9.18,-5.45 -13.94,-7.54 -4.77,-2.09 -9.27,-3.46 -14.34,-4.44 -5.06,-0.98 -10.68,-1.57 -16.75,-1.4 -6.07,0.16 -12.6,1.08 -18.61,2.71 -6.01,1.63 -11.49,3.98 -15.48,5.55 -3.98,1.57 -6.47,2.35 -8.36,2.19 -1.89,-0.16 -3.2,-1.27 -3.66,-2.68 -0.46,-1.4 -0.07,-3.1 0.62,-4.54 0.69,-1.44 1.67,-2.61 5.22,-5.45z"/>
    <g>
     <path class="fil19 str14" d="M234.07 234.19l18.17 0c0.86,0 1.55,0.7 1.55,1.55l0 0c0,0.86 -0.7,1.55 -1.55,1.55l-18.17 0c-0.86,0 -1.55,-0.7 -1.55,-1.55l0 -0c0,-0.86 0.7,-1.55 1.55,-1.55z"/>
     <path class="fil19 str14" d="M444.25 234.19l18.17 0c0.85,0 1.55,0.7 1.55,1.55l0 0c0,0.86 -0.7,1.55 -1.55,1.55l-18.17 0c-0.86,0 -1.55,-0.7 -1.55,-1.55l0 -0c0,-0.86 0.7,-1.55 1.55,-1.55z"/>
    </g>
    <g>
     <path class="fil19 str14" d="M346.69 349.92l0 -18.17c0,-0.86 0.7,-1.55 1.55,-1.55l0 0c0.86,0 1.55,0.7 1.55,1.55l0 18.17c0,0.86 -0.7,1.55 -1.55,1.55l-0 0c-0.86,0 -1.55,-0.7 -1.55,-1.55z"/>
     <path class="fil19 str14" d="M346.69 139.75l0 -18.17c0,-0.86 0.7,-1.55 1.55,-1.55l0 0c0.86,0 1.55,0.7 1.55,1.55l0 18.17c0,0.85 -0.7,1.55 -1.55,1.55l-0 0c-0.86,0 -1.55,-0.7 -1.55,-1.55z"/>
    </g>
    <g>
     <path class="fil19 str14" d="M255.09 183.66l-6.53 -3.77c-0.7,-0.4 -0.94,-1.31 -0.54,-2.01l0 0c0.4,-0.7 1.31,-0.94 2.01,-0.54l6.53 3.77c0.7,0.4 0.94,1.31 0.54,2.01l0 0c-0.4,0.7 -1.31,0.94 -2.01,0.54z"/>
     <path class="fil19 str14" d="M446.46 294.15l-6.53 -3.77c-0.7,-0.4 -0.94,-1.31 -0.54,-2.01l0 0c0.4,-0.7 1.31,-0.94 2.01,-0.54l6.53 3.77c0.7,0.4 0.94,1.31 0.54,2.01l0 0c-0.4,0.7 -1.31,0.94 -2.01,0.54z"/>
    </g>
    <g>
     <path class="fil19 str14" d="M293.61 144.06l-3.77 -6.53c-0.4,-0.7 -0.16,-1.6 0.54,-2.01l0 0c0.7,-0.4 1.6,-0.16 2.01,0.54l3.77 6.53c0.4,0.7 0.16,1.6 -0.54,2.01l0 0c-0.7,0.4 -1.6,0.16 -2.01,-0.54z"/>
     <path class="fil19 str14" d="M404.1 335.44l-3.77 -6.53c-0.4,-0.7 -0.16,-1.6 0.54,-2.01l0 0c0.7,-0.4 1.6,-0.16 2.01,0.54l3.77 6.53c0.4,0.7 0.16,1.6 -0.54,2.01l0 0c-0.7,0.4 -1.6,0.16 -2.01,-0.54z"/>
    </g>
    <g>
     <path class="fil19 str14" d="M255.09 287.84l-6.53 3.77c-0.7,0.4 -0.94,1.31 -0.54,2.01l0 0c0.4,0.7 1.31,0.94 2.01,0.54l6.53 -3.77c0.7,-0.4 0.94,-1.31 0.54,-2.01l0 0c-0.4,-0.7 -1.31,-0.94 -2.01,-0.54z"/>
     <path class="fil19 str14" d="M446.46 177.35l-6.53 3.77c-0.7,0.4 -0.94,1.31 -0.54,2.01l0 0c0.4,0.7 1.31,0.94 2.01,0.54l6.53 -3.77c0.7,-0.4 0.94,-1.31 0.54,-2.01l0 0c-0.4,-0.7 -1.31,-0.94 -2.01,-0.54z"/>
    </g>
    <g>
     <path class="fil19 str14" d="M293.61 327.44l-3.77 6.53c-0.4,0.7 -0.16,1.6 0.54,2.01l0 0c0.7,0.4 1.6,0.16 2.01,-0.54l3.77 -6.53c0.4,-0.7 0.16,-1.6 -0.54,-2.01l0 0c-0.7,-0.4 -1.6,-0.16 -2.01,0.54z"/>
     <path class="fil19 str15" d="M404.1 136.06l-3.77 6.53c-0.4,0.7 -0.16,1.6 0.54,2.01l0 0c0.7,0.4 1.6,0.16 2.01,-0.54l3.77 -6.53c0.4,-0.7 0.16,-1.6 -0.54,-2.01l0 0c-0.7,-0.4 -1.6,-0.16 -2.01,0.54z"/>
    </g>
   </g>
  </g>
 </g>
</svg>
