<?xml version="1.0" encoding="UTF-8"?>
<!DOCTYPE svg PUBLIC "-//W3C//DTD SVG 1.1//EN" "http://www.w3.org/Graphics/SVG/1.1/DTD/svg11.dtd">
<!-- Creator: CorelDRAW -->
<svg xmlns="http://www.w3.org/2000/svg" xml:space="preserve" width="146.338mm" height="190.5mm" version="1.1" style="shape-rendering:geometricPrecision; text-rendering:geometricPrecision; image-rendering:optimizeQuality; fill-rule:evenodd; clip-rule:evenodd"
viewBox="0 0 499.1 649.72"
 xmlns:xlink="http://www.w3.org/1999/xlink"
 xmlns:xodm="http://www.corel.com/coreldraw/odm/2003">
 <defs>
  <style type="text/css">
   <![CDATA[
    .str1 {stroke:#020111;stroke-width:1.71;stroke-linecap:round;stroke-linejoin:round;stroke-miterlimit:22.9256;stroke-opacity:0.200000}
    .str0 {stroke:#020111;stroke-width:1.71;stroke-linecap:round;stroke-linejoin:round;stroke-miterlimit:22.9256}
    .fil12 {fill:none}
    .fil5 {fill:#89DCF4}
    .fil6 {fill:#8B7CDB}
    .fil0 {fill:#DBD7F0}
    .fil11 {fill:#DCEEF8}
    .fil15 {fill:#FFB55C}
    .fil1 {fill:#FFB55C}
    .fil9 {fill:#FFC577}
    .fil17 {fill:#FFC577}
    .fil10 {fill:#FFE8CC}
    .fil16 {fill:#FFE8CC}
    .fil14 {fill:white}
    .fil2 {fill:white}
    .fil7 {fill:#DBD7F0;fill-rule:nonzero}
    .fil8 {fill:white;fill-rule:nonzero}
    .fil4 {fill:#020111;fill-opacity:0.101961}
    .fil13 {fill:#020111;fill-opacity:0.200000}
    .fil3 {fill:#385362;fill-opacity:0.200000}
   ]]>
  </style>
   <clipPath id="id0">
    <path d="M-0 0l499.1 0 0 649.72 -499.1 0 0 -649.72z"/>
   </clipPath>
 </defs>
 <g id="Слой_x0020_1">
  <metadata id="CorelCorpID_0Corel-Layer"/>
  <polygon class="fil0" points="-0,0 499.1,0 499.1,649.72 -0,649.72 "/>
  <g style="clip-path:url(#id0)">
   <g id="_1771506335088">
    <polygon id="_1" class="fil0 str0" points="162.41,87.23 161.49,374 264.76,407.07 265.68,120.3 "/>
    <polygon class="fil1 str0" points="265.68,120.3 264.76,407.07 368.03,374 368.95,87.23 "/>
    <polygon class="fil2 str0" points="368.95,87.23 265.68,54.17 162.41,87.23 265.68,120.3 "/>
    <polygon class="fil1 str0" points="27.55,173.88 26.63,460.65 129.9,493.71 130.82,206.94 "/>
    <polygon class="fil0 str0" points="130.82,206.94 129.9,493.71 233.17,460.65 234.09,173.88 "/>
    <polygon class="fil2 str0" points="234.09,173.88 130.82,140.81 27.55,173.88 130.82,206.94 "/>
    <path class="fil3 str1" d="M78.64 157.52l-51.09 16.36 57.71 18.48c0.47,-0.02 0.92,-0.05 1.35,-0.09 6.49,-0.66 8.66,-4.31 9.63,-8.43 0.97,-4.12 0.74,-8.7 -1.62,-12.39 -2.36,-3.68 -6.84,-6.47 -9.71,-8.8 -2.87,-2.33 -4.14,-4.21 -6.02,-5.03 -0.08,-0.04 -0.16,-0.07 -0.25,-0.1z"/>
    <polygon class="fil0 str0" points="162.66,234.39 161.83,491.91 357.91,554.69 358.73,297.18 "/>
    <polygon class="fil2 str0" points="358.73,297.18 357.91,554.69 553.99,491.91 554.81,234.39 "/>
    <polygon class="fil2 str0" points="554.81,234.39 358.73,171.61 162.66,234.39 358.73,297.18 "/>
    <polygon class="fil2 str0" points="183.86,327.86 182.94,614.63 183.03,615.86 183.28,617.08 183.71,618.28 184.29,619.46 185.04,620.62 185.93,621.76 186.98,622.87 188.17,623.96 189.5,625.02 190.97,626.06 192.58,627.06 194.31,628.03 196.16,628.97 198.14,629.88 200.23,630.75 202.43,631.58 204.74,632.38 207.16,633.13 209.67,633.84 212.28,634.51 214.98,635.13 217.77,635.71 220.63,636.24 223.58,636.72 226.6,637.15 229.7,637.53 232.85,637.85 236.07,638.12 239.35,638.33 242.68,638.48 246.06,638.57 249.48,638.6 252.91,638.57 256.29,638.48 259.62,638.33 262.89,638.12 266.11,637.85 269.27,637.53 272.36,637.15 275.39,636.72 278.33,636.24 281.2,635.71 283.99,635.13 286.69,634.51 289.3,633.84 291.81,633.13 294.23,632.38 296.54,631.58 298.74,630.75 300.83,629.88 302.81,628.97 304.66,628.03 306.39,627.06 308,626.06 309.46,625.02 310.8,623.96 311.99,622.87 313.04,621.76 313.93,620.62 314.67,619.46 315.26,618.28 315.68,617.08 315.94,615.86 316.86,329.1 316.6,330.31 316.18,331.51 315.59,332.69 314.85,333.85 313.95,334.99 312.91,336.11 311.72,337.19 310.38,338.26 308.91,339.29 307.31,340.29 305.58,341.27 303.72,342.21 301.75,343.11 299.66,343.98 297.45,344.81 295.14,345.61 292.73,346.36 290.22,347.07 287.61,347.74 284.91,348.36 282.12,348.94 279.25,349.47 276.3,349.95 273.28,350.38 270.19,350.76 267.03,351.08 263.81,351.35 260.54,351.56 257.21,351.71 253.83,351.8 250.4,351.84 246.98,351.8 243.6,351.71 240.27,351.56 236.99,351.35 233.77,351.08 230.61,350.76 227.52,350.38 224.5,349.95 221.55,349.47 218.68,348.94 215.9,348.36 213.2,347.74 210.59,347.07 208.07,346.36 205.66,345.61 203.35,344.81 201.15,343.98 199.05,343.11 197.08,342.21 195.22,341.27 193.49,340.29 191.89,339.29 190.42,338.26 189.09,337.19 187.9,336.11 186.85,334.99 185.95,333.85 185.21,332.69 184.63,331.51 184.2,330.31 183.95,329.1 "/>
    <path class="fil2 str0" d="M250.4 303.89c-36.75,0 -66.54,10.73 -66.54,23.97 0,13.24 29.79,23.97 66.54,23.97 36.75,0 66.54,-10.73 66.54,-23.97 0,-13.24 -29.79,-23.97 -66.54,-23.97z"/>
    <polygon class="fil0 str0" points="20.71,270.06 19.8,556.83 19.89,558.06 20.18,559.28 20.65,560.48 21.3,561.66 22.12,562.82 23.12,563.96 24.28,565.07 25.6,566.16 27.07,567.22 28.7,568.26 30.48,569.26 32.4,570.23 34.46,571.17 36.65,572.08 38.97,572.95 41.41,573.78 43.98,574.57 46.65,575.33 49.44,576.04 52.33,576.71 55.33,577.33 58.42,577.91 61.6,578.44 64.87,578.92 68.22,579.35 71.65,579.72 75.15,580.05 78.72,580.31 82.36,580.53 86.05,580.68 89.8,580.77 93.59,580.8 97.39,580.77 101.14,580.68 104.83,580.53 108.47,580.31 112.04,580.05 115.54,579.72 118.97,579.35 122.32,578.92 125.59,578.44 128.77,577.91 131.86,577.33 134.86,576.71 137.75,576.04 140.54,575.33 143.21,574.57 145.78,573.78 148.22,572.95 150.54,572.08 152.73,571.17 154.79,570.23 156.71,569.26 158.48,568.26 160.11,567.22 161.59,566.16 162.91,565.07 164.07,563.96 165.07,562.82 165.89,561.66 166.54,560.48 167.01,559.28 167.3,558.06 168.21,271.29 167.93,272.51 167.46,273.71 166.81,274.89 165.99,276.05 164.99,277.19 163.83,278.3 162.51,279.39 161.03,280.45 159.4,281.49 157.63,282.49 155.71,283.46 153.65,284.4 151.46,285.31 149.14,286.18 146.69,287.01 144.13,287.81 141.45,288.56 138.67,289.27 135.77,289.94 132.78,290.56 129.69,291.14 126.51,291.67 123.24,292.15 119.89,292.58 116.46,292.96 112.96,293.28 109.39,293.55 105.75,293.76 102.06,293.91 98.31,294 94.51,294.03 90.71,294 86.97,293.91 83.27,293.76 79.64,293.55 76.07,293.28 72.57,292.96 69.14,292.58 65.79,292.15 62.52,291.67 59.34,291.14 56.25,290.56 53.25,289.94 50.36,289.27 47.57,288.56 44.89,287.81 42.33,287.01 39.89,286.18 37.57,285.31 35.38,284.4 33.32,283.46 31.4,282.49 29.62,281.49 27.99,280.45 26.51,279.39 25.19,278.3 24.03,277.19 23.04,276.05 22.21,274.89 21.57,273.71 21.1,272.51 20.81,271.29 "/>
    <path class="fil2 str0" d="M94.51 246.09c-40.76,0 -73.8,10.73 -73.8,23.97 0,13.24 33.04,23.97 73.8,23.97 40.76,0 73.8,-10.73 73.8,-23.97 0,-13.24 -33.04,-23.97 -73.8,-23.97z"/>
    <g>
     <path class="fil4" d="M303.8 253.95l34.01 11.21c5.62,1.85 14.17,2.11 18.98,0.58l117.94 -37.68c4.69,-1.5 3.86,-4.18 -1.83,-5.96l-34.43 -10.76 2.07 -0.66 -57.89 -18.08c-5.7,-1.78 -14.3,-2 -19.13,-0.5l-40.3 12.57 -16.37 -5.22c-4.4,-1.4 -11.12,-1.58 -14.94,-0.4l-24.91 7.73c-3.84,1.19 -3.4,3.33 0.99,4.74l16.31 5.28 -40.97 12.78c-4.96,1.55 -4.43,4.33 1.2,6.18l57.14 18.85 2.13 -0.67zm12.63 -47.16l-25.29 7.89 -13.67 -4.41c-1.72,-0.55 -1.9,-1.39 -0.39,-1.86l19.81 -6.16c1.49,-0.46 4.13,-0.39 5.85,0.16l13.7 4.38z"/>
     <g>
      <polygon class="fil5 str0" points="300.06,210.51 300,237.49 239.88,217.73 239.34,217.54 238.83,217.35 238.35,217.16 237.9,216.96 237.49,216.75 237.1,216.55 236.75,216.34 236.43,216.12 236.14,215.91 235.88,215.69 235.66,215.47 235.46,215.25 235.3,215.02 235.17,214.8 235.07,214.58 235,214.36 234.97,214.14 235.03,187.16 235.06,187.38 235.13,187.61 235.23,187.83 235.36,188.05 235.52,188.27 235.71,188.49 235.94,188.71 236.2,188.93 236.49,189.15 236.81,189.36 237.16,189.57 237.55,189.78 237.96,189.98 238.41,190.18 238.89,190.38 239.4,190.57 239.94,190.76 "/>
      <polygon class="fil1 str0" points="300.06,210.51 300,237.49 239.88,217.73 239.34,217.54 238.83,217.35 238.35,217.16 237.9,216.96 237.49,216.75 237.1,216.55 236.75,216.34 236.43,216.12 236.14,215.91 235.88,215.69 235.66,215.47 235.46,215.25 235.3,215.02 235.17,214.8 235.07,214.58 235,214.36 234.97,214.14 235.03,187.16 235.06,187.38 235.13,187.61 235.23,187.83 235.36,188.05 235.52,188.27 235.71,188.49 235.94,188.71 236.2,188.93 236.49,189.15 236.81,189.36 237.16,189.57 237.55,189.78 237.96,189.98 238.41,190.18 238.89,190.38 239.4,190.57 239.94,190.76 "/>
      <polygon class="fil1 str0" points="445.7,163.78 445.64,190.75 300,237.49 300.06,210.51 "/>
      <g>
       <polygon class="fil5 str0" points="321.57,162.05 321.45,169.63 314.35,171.91 314.47,164.33 "/>
       <polygon class="fil1 str0" points="314.47,164.33 314.35,171.91 299.81,167.28 299.64,167.23 299.46,167.18 299.28,167.13 299.09,167.09 298.9,167.04 298.7,167.01 298.5,166.97 298.3,166.94 298.1,166.91 297.89,166.89 297.68,166.86 297.47,166.84 297.27,166.83 297.06,166.82 296.85,166.81 296.64,166.8 296.43,166.8 296.22,166.79 296.01,166.8 295.81,166.8 295.61,166.81 295.41,166.83 295.21,166.84 295.02,166.86 294.83,166.88 294.65,166.91 294.47,166.94 294.3,166.97 294.13,167 293.97,167.04 293.81,167.08 293.66,167.13 273.04,173.74 272.77,173.84 272.54,173.94 272.35,174.05 272.2,174.17 272.1,174.3 272.03,174.43 272,174.56 272.13,166.98 272.16,166.85 272.22,166.72 272.33,166.59 272.48,166.47 272.67,166.36 272.9,166.25 273.17,166.16 293.79,159.55 293.94,159.5 294.09,159.46 294.25,159.42 294.42,159.39 294.6,159.35 294.78,159.33 294.96,159.3 295.15,159.28 295.34,159.26 295.54,159.24 295.73,159.23 295.94,159.22 296.14,159.22 296.35,159.21 296.55,159.21 296.76,159.22 296.97,159.22 297.18,159.23 297.39,159.25 297.6,159.26 297.81,159.28 298.02,159.3 298.22,159.33 298.43,159.36 298.63,159.39 298.83,159.43 299.02,159.46 299.22,159.5 299.4,159.55 299.59,159.6 299.77,159.64 299.94,159.7 "/>
       <polygon class="fil5 str0" points="288.11,172.78 287.98,180.36 280.88,182.64 281,175.06 "/>
       <polygon class="fil6 str0" points="281,175.06 280.88,182.64 263.63,177.08 262.81,176.79 262.08,176.48 261.45,176.16 260.92,175.84 260.49,175.5 260.16,175.16 259.93,174.82 259.8,174.47 259.77,174.13 259.89,166.55 259.92,166.89 260.06,167.24 260.29,167.58 260.62,167.92 261.05,168.26 261.58,168.58 262.21,168.9 262.93,169.21 263.75,169.49 "/>
      </g>
      <path class="fil6 str0" d="M321.57 162.05l-7.1 2.28 -14.53 -4.63c-1.83,-0.58 -4.6,-0.65 -6.16,-0.15l-20.62 6.61c-1.56,0.5 -1.35,1.39 0.47,1.97l14.46 4.65 -7.1 2.28 -17.25 -5.56c-4.64,-1.5 -5.17,-3.76 -1.19,-5.04l25.91 -8.3c3.98,-1.28 11.05,-1.11 15.73,0.38l17.37 5.52z"/>
      <path class="fil1 str0" d="M445.7 163.78l-145.64 46.74 -60.12 -19.76c-5.92,-1.95 -6.58,-4.88 -1.48,-6.51l125.27 -40.16c5.1,-1.63 14.23,-1.42 20.3,0.47l61.66 19.23z"/>
      <polygon class="fil0 str0" points="303.83,234.23 335.93,244.77 336.49,244.95 337.07,245.12 337.67,245.28 338.28,245.42 338.9,245.56 339.53,245.69 340.17,245.81 340.82,245.91 341.48,246.01 342.15,246.1 342.82,246.18 343.49,246.24 344.17,246.3 344.84,246.35 345.52,246.38 346.2,246.41 346.87,246.42 347.54,246.43 348.2,246.42 348.86,246.41 349.51,246.38 350.15,246.34 350.78,246.3 351.4,246.24 352.01,246.17 352.6,246.09 353.18,246 353.74,245.9 354.28,245.79 354.8,245.66 355.31,245.53 355.79,245.38 479.99,205.5 480.44,205.35 480.86,205.19 481.24,205.02 481.59,204.85 481.9,204.67 482.19,204.48 482.43,204.29 482.65,204.1 482.83,203.9 482.98,203.7 483.09,203.49 483.17,203.29 483.22,203.07 482.94,181.71 482.89,181.92 482.81,182.13 482.69,182.33 482.55,182.54 482.36,182.73 482.15,182.93 481.9,183.12 481.62,183.3 481.31,183.48 480.96,183.66 480.57,183.82 480.16,183.98 479.71,184.14 355.5,224.02 355.02,224.16 354.52,224.3 354,224.42 353.46,224.53 352.9,224.63 352.32,224.72 351.73,224.8 351.12,224.87 350.5,224.93 349.87,224.98 349.23,225.02 348.58,225.04 347.92,225.06 347.26,225.06 346.59,225.06 345.91,225.04 345.24,225.02 344.56,224.98 343.88,224.94 343.21,224.88 342.53,224.81 341.86,224.73 341.2,224.65 340.54,224.55 339.89,224.44 339.25,224.32 338.61,224.2 337.99,224.06 337.39,223.91 336.79,223.75 336.21,223.59 335.65,223.41 303.74,212.93 303.69,234.19 "/>
      <path class="fil2 str0" d="M303.74 212.93l31.91 10.48c5.91,1.94 14.85,2.22 19.85,0.61l124.2 -39.88c5,-1.6 4.13,-4.47 -1.93,-6.36l-32.7 -10.2 -141.33 45.35 0 0z"/>
      <polygon class="fil6 str0" points="436.55,178.1 436.53,187.42 436.51,187.56 436.45,187.69 436.34,187.82 436.19,187.95 435.99,188.07 435.75,188.18 435.47,188.28 429.15,190.31 428.99,190.36 428.83,190.4 428.66,190.44 428.48,190.48 428.3,190.51 428.11,190.54 427.92,190.56 427.72,190.59 427.52,190.61 427.31,190.62 427.11,190.64 426.89,190.64 426.68,190.65 426.46,190.65 426.24,190.65 426.02,190.65 425.8,190.64 425.58,190.63 425.36,190.62 425.14,190.6 424.92,190.58 424.7,190.55 424.48,190.53 424.27,190.5 424.05,190.46 423.84,190.42 423.64,190.38 423.43,190.34 423.23,190.29 423.04,190.24 422.85,190.19 422.66,190.14 400.87,183.23 400.53,183.11 400.23,182.98 399.97,182.85 399.75,182.72 399.56,182.58 399.42,182.44 399.32,182.3 399.26,182.16 399.25,182.03 399.26,172.7 399.28,172.84 399.33,172.98 399.43,173.12 399.58,173.26 399.76,173.4 399.98,173.53 400.24,173.66 400.54,173.79 400.89,173.9 422.67,180.81 422.86,180.87 423.05,180.92 423.24,180.97 423.44,181.02 423.65,181.06 423.86,181.1 424.07,181.14 424.28,181.17 424.49,181.2 424.71,181.23 424.93,181.26 425.15,181.28 425.37,181.29 425.59,181.31 425.82,181.32 426.04,181.33 426.26,181.33 426.47,181.33 426.69,181.33 426.91,181.32 427.12,181.31 427.33,181.3 427.53,181.28 427.73,181.27 427.93,181.24 428.12,181.22 428.31,181.19 428.49,181.15 428.67,181.12 428.84,181.08 429,181.03 429.16,180.99 435.48,178.96 435.76,178.85 436,178.74 436.2,178.63 436.35,178.5 436.46,178.37 436.52,178.24 "/>
      <path class="fil6 str0" d="M435.48 178.96l-6.32 2.03c-1.62,0.52 -4.54,0.44 -6.48,-0.17l-21.79 -6.91c-1.93,-0.61 -2.18,-1.53 -0.56,-2.05l6.29 -2.02c1.62,-0.52 4.51,-0.44 6.44,0.17l21.84 6.89c1.95,0.61 2.21,1.54 0.59,2.07z"/>
      <polygon class="fil6 str0" points="371.8,198.88 371.79,208.2 371.76,208.34 371.69,208.47 371.58,208.61 371.43,208.73 371.23,208.85 371,208.96 370.71,209.06 364.38,211.09 364.23,211.14 364.07,211.18 363.9,211.22 363.72,211.26 363.54,211.29 363.35,211.32 363.16,211.35 362.96,211.37 362.76,211.39 362.56,211.41 362.35,211.42 362.14,211.43 361.92,211.43 361.71,211.44 361.49,211.43 361.27,211.43 361.05,211.42 360.83,211.41 360.61,211.4 360.39,211.38 360.17,211.36 359.96,211.33 359.74,211.3 359.53,211.27 359.31,211.24 359.11,211.2 358.9,211.16 358.7,211.12 358.5,211.07 358.31,211.02 358.12,210.96 357.94,210.91 336.39,203.91 336.05,203.8 335.76,203.67 335.5,203.54 335.28,203.4 335.1,203.27 334.96,203.13 334.87,202.98 334.81,202.84 334.8,202.7 334.81,193.38 334.82,193.52 334.88,193.66 334.98,193.8 335.11,193.94 335.29,194.08 335.51,194.22 335.77,194.35 336.07,194.47 336.4,194.59 357.95,201.59 358.13,201.64 358.32,201.7 358.51,201.75 358.71,201.79 358.91,201.84 359.12,201.88 359.33,201.92 359.54,201.95 359.75,201.98 359.97,202.01 360.19,202.03 360.41,202.06 360.62,202.07 360.84,202.09 361.06,202.1 361.28,202.11 361.5,202.11 361.72,202.11 361.94,202.11 362.15,202.11 362.36,202.1 362.57,202.09 362.77,202.07 362.97,202.05 363.17,202.03 363.36,202 363.55,201.97 363.73,201.94 363.91,201.9 364.08,201.86 364.24,201.82 364.4,201.77 370.73,199.74 371.01,199.64 371.25,199.53 371.44,199.41 371.6,199.28 371.71,199.15 371.77,199.02 "/>
      <path class="fil6 str0" d="M370.73 199.74l-6.33 2.03c-1.62,0.52 -4.53,0.44 -6.45,-0.19l-21.55 -6.99c-1.9,-0.62 -2.14,-1.55 -0.52,-2.07l6.3 -2.02c1.62,-0.52 4.5,-0.44 6.41,0.18l21.59 6.98c1.92,0.62 2.17,1.56 0.55,2.08z"/>
     </g>
    </g>
    <g>
     <g>
      <polygon class="fil4" points="178.72,164.15 159.24,157.91 139.76,164.15 159.24,170.38 "/>
      <polygon class="fil4" points="150.3,173.5 130.82,167.26 111.34,173.5 130.82,179.74 "/>
      <polygon class="fil4" points="122.24,183.18 102.76,176.94 83.28,183.18 102.76,189.41 "/>
     </g>
     <polygon class="fil2 str0" points="178.72,150.58 159.24,144.34 139.76,150.58 159.24,156.82 "/>
     <g>
      <polygon class="fil6 str0" points="139.77,130.52 139.76,150.58 159.24,156.82 159.25,136.75 "/>
      <polygon class="fil6 str0" points="159.25,136.75 159.24,156.82 178.72,150.58 178.73,130.52 "/>
      <path class="fil6 str0" d="M178.73 130.52l-19.48 -6.24 -19.48 6.24 19.48 6.24 19.48 -6.24zm-9.74 -3.12m-19.48 0m0 6.24m19.48 0"/>
     </g>
     <polygon class="fil2 str0" points="150.3,159.93 130.82,153.7 111.34,159.93 130.82,166.17 "/>
     <g>
      <polygon class="fil1 str0" points="111.36,118.53 111.34,159.93 130.82,166.17 130.84,124.76 "/>
      <polygon class="fil1 str0" points="130.84,124.76 130.82,166.17 150.3,159.93 150.32,118.53 "/>
      <path class="fil1 str0" d="M150.32 118.53l-19.48 -6.24 -19.48 6.24 19.48 6.24 19.48 -6.24zm-9.74 -3.12m-19.48 0m0 6.24m19.48 0"/>
     </g>
     <polygon class="fil2 str0" points="122.24,169.61 102.76,163.37 83.28,169.61 102.76,175.85 "/>
     <g>
      <polygon class="fil2 str0" points="83.5,99.42 83.28,169.61 102.76,175.85 102.98,105.65 "/>
      <polygon class="fil2 str0" points="102.98,105.65 102.76,175.85 122.24,169.61 122.46,99.42 "/>
      <path class="fil2 str0" d="M122.46 99.42l-19.48 -6.24 -19.48 6.24 19.48 6.24 19.48 -6.24zm-9.74 -3.12m-19.48 0m0 6.24m19.48 0"/>
     </g>
    </g>
    <g>
     <path class="fil4" d="M114.94 260.96c-18.92,0 -34.26,5.53 -34.26,12.34 0,6.82 15.34,12.34 34.26,12.34 18.92,0 34.26,-5.53 34.26,-12.34 0,-6.82 -15.34,-12.34 -34.26,-12.34z"/>
     <path class="fil4" d="M64.52 255.22c-9.46,0 -17.13,2.76 -17.13,6.17 0,3.41 7.67,6.17 17.13,6.17 9.46,0 17.13,-2.76 17.13,-6.17 0,-3.41 -7.67,-6.17 -17.13,-6.17z"/>
    </g>
    <g>
     <polygon class="fil0 str0" points="61.13,216.22 60.59,216.57 60.04,216.88 59.49,217.14 58.95,217.37 58.4,217.56 57.85,217.71 57.3,217.81 56.76,217.88 56.22,217.92 55.68,217.91 55.15,217.87 54.62,217.79 54.11,217.67 53.59,217.52 64.19,220.85 64.7,221 65.22,221.12 65.74,221.2 66.28,221.24 66.81,221.25 67.35,221.22 67.9,221.15 68.44,221.04 68.99,220.89 69.54,220.71 70.09,220.48 70.64,220.21 71.18,219.9 71.72,219.55 72.26,219.17 72.77,218.75 73.27,218.3 73.75,217.82 74.21,217.32 74.65,216.79 75.08,216.23 75.48,215.65 75.87,215.05 76.23,214.43 76.58,213.78 76.9,213.12 77.2,212.45 77.48,211.75 77.73,211.05 77.97,210.33 78.18,209.59 78.37,208.85 78.53,208.1 78.67,207.34 78.78,206.58 78.87,205.81 78.93,205.04 78.97,204.27 78.98,203.49 78.96,202.72 78.92,201.95 78.84,201.18 78.74,200.41 78.61,199.66 78.46,198.9 78.27,198.16 78.05,197.44 77.82,196.74 77.55,196.08 77.27,195.44 76.96,194.83 76.64,194.25 76.29,193.7 75.93,193.18 75.54,192.7 75.14,192.24 74.73,191.82 74.3,191.42 73.85,191.07 73.4,190.74 72.93,190.45 72.44,190.19 71.95,189.97 71.45,189.78 60.85,186.44 61.36,186.63 61.85,186.86 62.33,187.11 62.8,187.41 63.26,187.73 63.7,188.09 64.14,188.48 64.55,188.9 64.95,189.36 65.33,189.85 65.7,190.37 66.04,190.92 66.37,191.5 66.68,192.1 66.96,192.74 67.22,193.41 67.46,194.1 67.68,194.83 67.86,195.57 68.02,196.32 68.15,197.08 68.25,197.84 68.32,198.61 68.37,199.38 68.38,200.16 68.37,200.93 68.34,201.7 68.27,202.48 68.19,203.25 68.07,204.01 67.94,204.77 67.77,205.52 67.59,206.26 67.37,206.99 67.14,207.71 66.88,208.42 66.61,209.11 66.3,209.79 65.98,210.45 65.64,211.09 65.27,211.71 64.89,212.32 64.49,212.89 64.06,213.45 63.62,213.98 63.16,214.49 62.68,214.97 62.18,215.41 61.66,215.83 "/>
     <polygon class="fil0 str0" points="54.15,221.41 43.55,218.07 43.71,218.35 43.87,218.63 44.03,218.9 44.2,219.17 44.37,219.43 44.54,219.69 44.72,219.94 44.9,220.19 45.08,220.43 45.26,220.67 45.45,220.91 45.63,221.13 45.83,221.36 46.02,221.58 46.22,221.79 46.41,222 57.01,225.34 56.81,225.13 56.61,224.91 56.42,224.69 56.23,224.47 56.04,224.24 55.85,224.01 55.67,223.77 55.49,223.53 55.31,223.28 55.14,223.03 54.96,222.77 54.79,222.5 54.63,222.24 54.46,221.96 54.3,221.69 "/>
     <polygon class="fil0 str0" points="57.01,225.34 46.41,222 45.47,227.19 56.07,230.53 "/>
     <polygon class="fil0 str0" points="56.07,230.53 45.47,227.19 45.9,227.65 46.33,228.08 46.76,228.47 47.19,228.82 47.62,229.14 48.05,229.43 48.48,229.68 48.92,229.91 49.35,230.1 49.79,230.26 60.38,233.59 59.94,233.43 59.51,233.24 59.08,233.02 58.64,232.76 58.21,232.48 57.78,232.16 57.35,231.8 56.92,231.41 56.49,230.99 "/>
     <polygon class="fil0 str0" points="69.31,228.93 58.72,225.59 60.57,229.82 71.16,233.15 "/>
     <polygon class="fil0 str0" points="85.11,187.76 74.52,184.43 70.89,185.89 81.49,189.22 "/>
     <polygon class="fil0 str0" points="74.82,176.91 64.23,173.58 63.79,173.47 63.35,173.4 62.91,173.35 62.47,173.34 62.03,173.35 72.63,176.68 73.07,176.67 73.51,176.69 73.95,176.74 74.39,176.81 "/>
     <polygon class="fil0 str0" points="72.63,176.68 62.03,173.35 59.92,177.95 70.52,181.29 "/>
     <polygon class="fil0 str0" points="70.52,181.29 59.92,177.95 59.66,177.94 59.41,177.93 59.15,177.92 58.89,177.92 58.63,177.93 58.37,177.94 58.1,177.95 57.84,177.98 57.58,178.01 57.32,178.04 57.05,178.08 56.79,178.13 56.53,178.18 56.26,178.24 56,178.31 55.73,178.38 66.32,181.71 66.59,181.64 66.85,181.58 67.12,181.52 67.38,181.47 67.65,181.42 67.91,181.38 68.17,181.34 68.44,181.31 68.7,181.29 68.96,181.27 69.22,181.26 69.48,181.26 69.74,181.26 70,181.26 70.26,181.27 "/>
     <polygon class="fil0 str0" points="64.47,177.48 53.88,174.14 53.6,174.21 53.33,174.28 53.07,174.36 52.8,174.44 52.54,174.53 52.29,174.62 52.03,174.72 51.79,174.83 51.54,174.94 51.3,175.05 51.06,175.18 50.83,175.3 50.6,175.43 50.38,175.57 50.15,175.71 49.93,175.86 49.71,176.02 49.48,176.18 49.26,176.35 49.05,176.53 48.84,176.71 48.63,176.9 48.42,177.09 48.22,177.28 48.02,177.49 47.83,177.69 47.64,177.9 47.45,178.12 47.27,178.34 47.09,178.57 46.91,178.8 46.74,179.03 57.33,182.37 57.51,182.13 57.68,181.9 57.86,181.68 58.05,181.46 58.23,181.24 58.42,181.03 58.62,180.82 58.81,180.62 59.02,180.42 59.22,180.23 59.43,180.05 59.64,179.86 59.86,179.69 60.08,179.52 60.3,179.35 60.53,179.19 60.75,179.05 60.97,178.9 61.2,178.77 61.42,178.64 61.66,178.51 61.9,178.39 62.14,178.27 62.38,178.16 62.63,178.06 62.88,177.96 63.14,177.86 63.4,177.78 63.66,177.69 63.93,177.61 64.2,177.54 "/>
     <polygon class="fil0 str0" points="57.33,182.37 46.74,179.03 47.38,184.08 57.97,187.42 "/>
     <polygon class="fil0 str0" points="57.97,187.42 47.38,184.08 47.16,184.34 46.95,184.6 46.74,184.86 46.53,185.13 46.33,185.4 46.13,185.68 45.94,185.95 45.74,186.24 45.55,186.52 45.36,186.81 45.18,187.1 45,187.4 44.82,187.7 44.64,188 44.47,188.31 44.3,188.62 54.9,191.95 55.07,191.64 55.24,191.34 55.41,191.03 55.59,190.74 55.77,190.44 55.96,190.15 56.15,189.86 56.34,189.57 56.53,189.29 56.73,189.01 56.93,188.74 57.13,188.46 57.33,188.2 57.54,187.93 57.75,187.67 "/>
     <polygon class="fil0 str0" points="54.9,191.95 44.3,188.62 40.74,187.83 51.34,191.16 "/>
     <polygon class="fil0 str0" points="51.34,191.16 40.74,187.83 40.56,188.16 40.37,188.49 40.2,188.82 40.03,189.15 39.86,189.48 39.71,189.81 39.56,190.13 39.41,190.46 39.27,190.79 39.14,191.11 39.01,191.44 38.89,191.77 38.77,192.09 38.66,192.41 38.56,192.74 38.46,193.06 38.37,193.38 38.28,193.71 38.2,194.03 38.12,194.35 38.05,194.67 37.98,194.99 37.92,195.31 37.86,195.63 37.81,195.95 37.76,196.27 37.72,196.58 37.68,196.9 37.65,197.22 37.63,197.54 37.6,197.85 37.58,198.17 48.18,201.5 48.2,201.19 48.22,200.87 48.25,200.55 48.28,200.24 48.32,199.92 48.36,199.6 48.4,199.28 48.46,198.96 48.51,198.65 48.57,198.33 48.64,198.01 48.71,197.69 48.79,197.36 48.87,197.04 48.96,196.72 49.05,196.4 49.15,196.07 49.26,195.75 49.37,195.43 49.48,195.1 49.61,194.78 49.73,194.45 49.87,194.12 50.01,193.8 50.15,193.47 50.3,193.14 50.46,192.81 50.62,192.48 50.79,192.15 50.97,191.82 51.15,191.49 "/>
     <polygon class="fil0 str0" points="48.18,201.5 37.58,198.17 40.6,200.71 51.19,204.04 "/>
     <polygon class="fil0 str0" points="51.19,204.04 40.6,200.71 40.56,201.08 40.52,201.45 40.49,201.82 40.46,202.2 40.44,202.57 40.42,202.94 40.4,203.32 40.39,203.69 40.38,204.06 40.38,204.44 40.38,204.81 40.38,205.19 40.39,205.56 40.4,205.93 40.42,206.31 40.44,206.68 51.04,210.02 51.02,209.64 51,209.27 50.99,208.9 50.98,208.52 50.97,208.15 50.97,207.77 50.97,207.4 50.98,207.03 50.99,206.65 51.01,206.28 51.03,205.9 51.05,205.53 51.08,205.16 51.11,204.79 51.15,204.41 "/>
     <polygon class="fil0 str0" points="51.04,210.02 40.44,206.68 37.26,209.8 47.86,213.13 "/>
     <polygon class="fil0 str0" points="47.86,213.13 37.26,209.8 37.28,210.2 37.3,210.59 37.33,210.98 37.36,211.36 37.4,211.73 37.44,212.1 37.48,212.46 37.53,212.81 37.58,213.16 37.64,213.5 37.7,213.84 37.77,214.16 37.84,214.49 37.92,214.8 38,215.11 38.08,215.42 38.17,215.72 38.26,216.01 38.35,216.3 38.45,216.58 38.56,216.85 38.66,217.12 38.77,217.39 38.89,217.65 39.01,217.9 39.13,218.15 39.25,218.39 39.38,218.63 39.52,218.86 39.65,219.09 39.79,219.31 39.93,219.53 50.53,222.87 50.38,222.65 50.25,222.43 50.11,222.2 49.98,221.97 49.85,221.73 49.72,221.48 49.6,221.24 49.48,220.98 49.37,220.72 49.26,220.46 49.15,220.19 49.05,219.91 48.95,219.63 48.85,219.35 48.76,219.05 48.67,218.75 48.59,218.45 48.51,218.14 48.44,217.82 48.37,217.5 48.3,217.17 48.24,216.84 48.18,216.49 48.12,216.15 48.07,215.79 48.03,215.43 47.99,215.07 47.95,214.69 47.92,214.31 47.9,213.92 47.87,213.53 "/>
     <path class="fil7 str0" d="M71.72 219.55c-5.77,3.95 -12.19,0.78 -14.35,-7.08 -2.16,-7.86 0.77,-17.45 6.54,-21.4 5.77,-3.95 12.2,-0.77 14.36,7.09 2.16,7.86 -0.78,17.44 -6.55,21.39zm-21.2 3.31l3.62 -1.46c0.83,1.52 1.8,2.83 2.86,3.93l-0.94 5.19c2.27,2.55 4.59,3.54 6.94,3.42l2.11 -4.6c1.37,0.11 2.78,-0.03 4.19,-0.42l1.85 4.23c1.48,-0.34 2.79,-0.92 3.94,-1.71 1.22,-0.84 2.28,-1.91 3.2,-3.18l-0.64 -5.05c1.15,-1.36 2.18,-2.88 3.07,-4.53l3.56 0.79c2.04,-3.54 2.99,-6.98 3.16,-10.35l-3.02 -2.53c0.23,-1.99 0.28,-3.99 0.16,-5.98l3.18 -3.12c-0.16,-4.31 -1.13,-7.43 -2.67,-9.73l-3.62 1.46c-0.83,-1.51 -1.79,-2.81 -2.86,-3.91l0.94 -5.2c-2.27,-2.55 -4.59,-3.54 -6.94,-3.43l-2.11 4.61c-1.37,-0.1 -2.78,0.03 -4.19,0.42l-1.85 -4.24c-1.48,0.34 -2.79,0.92 -3.95,1.72 -1.22,0.84 -2.28,1.91 -3.2,3.18l0.64 5.05c-1.15,1.36 -2.18,2.88 -3.07,4.53l-3.56 -0.79c-2.04,3.54 -2.99,6.98 -3.16,10.34l3.01 2.54c-0.22,1.98 -0.28,3.99 -0.15,5.98l-3.18 3.11c0.16,4.31 1.13,7.44 2.67,9.74z"/>
    </g>
    <g>
     <polygon class="fil2 str0" points="111.83,242.28 110.85,242.89 109.87,243.44 108.88,243.91 107.9,244.31 106.92,244.64 105.94,244.9 104.97,245.1 104,245.22 103.04,245.28 102.09,245.27 101.15,245.19 100.23,245.05 99.32,244.84 98.42,244.57 109.46,248.05 110.36,248.32 111.27,248.52 112.19,248.66 113.13,248.74 114.08,248.75 115.04,248.69 116.01,248.57 116.98,248.38 117.96,248.12 118.94,247.79 119.92,247.39 120.9,246.91 121.89,246.37 122.87,245.75 123.83,245.07 124.77,244.33 125.67,243.53 126.55,242.69 127.4,241.79 128.21,240.85 128.99,239.87 129.74,238.84 130.46,237.78 131.14,236.67 131.78,235.54 132.39,234.37 132.96,233.17 133.49,231.94 133.98,230.69 134.44,229.42 134.85,228.12 135.22,226.81 135.55,225.48 135.84,224.14 136.08,222.79 136.28,221.43 136.44,220.07 136.54,218.7 136.6,217.33 136.62,215.96 136.58,214.59 136.5,213.23 136.36,211.88 136.18,210.54 135.94,209.21 135.65,207.9 135.31,206.62 134.93,205.39 134.5,204.21 134.03,203.08 133.53,202 132.98,200.97 132.4,200 131.79,199.09 131.14,198.22 130.46,197.42 129.75,196.67 129.01,195.97 128.24,195.34 127.45,194.76 126.63,194.24 125.79,193.79 124.93,193.39 124.06,193.06 123.16,192.79 112.12,189.31 113.02,189.58 113.9,189.92 114.76,190.31 115.59,190.77 116.41,191.29 117.2,191.86 117.97,192.5 118.71,193.19 119.42,193.94 120.1,194.75 120.75,195.61 121.36,196.53 121.95,197.5 122.49,198.53 123,199.6 123.46,200.73 123.89,201.91 124.27,203.14 124.61,204.42 124.9,205.74 125.14,207.06 125.33,208.4 125.46,209.76 125.54,211.12 125.58,212.48 125.57,213.85 125.51,215.22 125.4,216.59 125.25,217.96 125.05,219.32 124.8,220.67 124.52,222.01 124.19,223.34 123.81,224.65 123.4,225.94 122.95,227.22 122.45,228.47 121.92,229.69 121.35,230.89 120.74,232.06 120.1,233.2 119.42,234.3 118.7,235.37 117.96,236.39 117.17,237.38 116.36,238.32 115.51,239.21 114.64,240.06 113.73,240.85 112.79,241.59 "/>
     <polygon class="fil2 str0" points="89.54,244.07 78.5,240.6 78.66,241.04 78.82,241.47 78.98,241.9 79.15,242.33 79.33,242.75 79.5,243.16 79.68,243.57 79.87,243.98 80.05,244.38 80.24,244.78 80.44,245.17 80.63,245.55 80.83,245.94 81.04,246.31 81.24,246.69 81.45,247.05 81.67,247.42 81.89,247.77 82.11,248.13 82.33,248.48 82.56,248.82 82.79,249.16 83.02,249.49 83.25,249.82 83.49,250.14 83.73,250.46 83.98,250.77 84.23,251.08 84.48,251.39 84.73,251.68 84.99,251.98 85.25,252.27 96.28,255.74 96.02,255.45 95.77,255.16 95.51,254.86 95.26,254.56 95.02,254.25 94.77,253.94 94.53,253.62 94.29,253.29 94.06,252.97 93.82,252.63 93.59,252.29 93.37,251.95 93.14,251.6 92.92,251.25 92.71,250.89 92.49,250.53 92.28,250.16 92.07,249.79 91.87,249.41 91.67,249.03 91.47,248.64 91.28,248.25 91.09,247.85 90.9,247.45 90.72,247.05 90.54,246.64 90.36,246.22 90.19,245.8 90.02,245.38 89.86,244.95 89.7,244.51 "/>
     <polygon class="fil2 str0" points="81.4,213.36 70.36,209.88 70.05,210.99 69.76,212.08 69.5,213.16 69.25,214.23 69.03,215.28 68.83,216.32 68.65,217.35 68.48,218.36 68.34,219.36 68.22,220.35 68.12,221.32 68.05,222.28 67.99,223.23 67.94,224.17 67.92,225.1 67.92,226.01 67.94,226.91 67.98,227.8 68.03,228.68 68.1,229.54 68.2,230.4 68.31,231.24 68.43,232.07 68.58,232.9 68.74,233.71 68.92,234.51 69.12,235.29 69.33,236.07 69.56,236.84 69.81,237.6 70.07,238.34 70.35,239.08 81.38,242.56 81.11,241.82 80.84,241.07 80.6,240.31 80.37,239.55 80.15,238.77 79.96,237.98 79.78,237.18 79.61,236.37 79.47,235.55 79.34,234.72 79.23,233.87 79.14,233.02 79.07,232.15 79.01,231.28 78.98,230.39 78.96,229.49 78.96,228.57 78.98,227.65 79.02,226.71 79.08,225.76 79.16,224.8 79.26,223.82 79.38,222.83 79.52,221.83 79.68,220.82 79.86,219.79 80.07,218.76 80.29,217.7 80.54,216.64 80.8,215.56 81.09,214.46 "/>
     <polygon class="fil2 str0" points="96.28,255.74 85.25,252.27 84.74,264.22 95.78,267.7 "/>
     <polygon class="fil2 str0" points="95.78,267.7 84.74,264.22 85.35,264.83 85.96,265.4 86.57,265.94 87.18,266.45 87.79,266.93 88.41,267.38 89.02,267.79 89.63,268.18 90.25,268.53 90.86,268.85 91.48,269.15 92.09,269.41 92.71,269.65 103.75,273.13 103.13,272.89 102.51,272.62 101.9,272.33 101.28,272.01 100.67,271.65 100.06,271.27 99.44,270.85 98.83,270.4 98.22,269.93 97.61,269.42 97,268.88 96.39,268.3 "/>
     <polygon class="fil2 str0" points="131.27,254.25 120.24,250.78 128.12,253.42 139.16,256.89 "/>
     <polygon class="fil2 str0" points="139.37,174.87 128.33,171.39 120.35,177.19 131.39,180.67 "/>
     <polygon class="fil2 str0" points="126.79,178.73 115.75,175.26 115.41,175.16 115.07,175.08 114.73,174.99 114.38,174.92 114.03,174.85 113.68,174.79 113.33,174.73 112.98,174.68 112.63,174.63 112.28,174.6 111.92,174.56 111.57,174.54 111.21,174.52 110.85,174.5 110.49,174.5 110.13,174.5 109.77,174.5 109.41,174.51 120.45,177.99 120.81,177.98 121.17,177.97 121.53,177.97 121.89,177.98 122.25,177.99 122.6,178.01 122.96,178.04 123.32,178.07 123.67,178.11 124.02,178.15 124.37,178.2 124.72,178.26 125.07,178.33 125.42,178.39 125.76,178.47 126.11,178.55 126.45,178.64 "/>
     <polygon class="fil2 str0" points="115.89,168.95 104.85,165.48 104.46,165.51 104.07,165.56 103.69,165.6 103.31,165.65 102.93,165.71 102.55,165.78 102.18,165.85 101.81,165.92 101.44,166 101.08,166.09 100.72,166.18 100.36,166.27 100.01,166.37 99.66,166.48 99.31,166.59 98.96,166.71 98.62,166.83 98.28,166.96 97.94,167.1 97.6,167.24 97.27,167.38 96.94,167.53 96.62,167.68 96.29,167.84 95.97,168.01 95.65,168.18 95.34,168.35 95.03,168.53 94.72,168.71 94.41,168.9 94.1,169.1 93.8,169.3 93.17,169.73 92.55,170.19 91.95,170.67 91.35,171.17 90.77,171.69 90.19,172.24 89.63,172.8 89.08,173.38 88.54,173.98 88.01,174.61 87.49,175.25 86.99,175.91 86.49,176.59 86,177.29 85.52,178.01 85.06,178.74 96.09,182.22 96.56,181.48 97.04,180.77 97.53,180.07 98.02,179.39 98.53,178.72 99.05,178.08 99.58,177.46 100.12,176.86 100.67,176.27 101.23,175.71 101.81,175.17 102.39,174.65 102.98,174.15 103.59,173.67 104.21,173.21 104.84,172.77 105.14,172.57 105.45,172.38 105.75,172.19 106.06,172 106.38,171.82 106.69,171.65 107.01,171.48 107.33,171.32 107.65,171.16 107.98,171 108.31,170.85 108.64,170.71 108.98,170.57 109.31,170.44 109.65,170.31 110,170.19 110.34,170.07 110.69,169.96 111.04,169.85 111.4,169.75 111.76,169.65 112.12,169.56 112.48,169.48 112.85,169.4 113.22,169.32 113.59,169.25 113.97,169.19 114.34,169.13 114.73,169.08 115.11,169.03 115.5,168.99 "/>
     <polygon class="fil2 str0" points="96.09,182.22 85.06,178.74 85.36,190.57 96.39,194.05 "/>
     <polygon class="fil2 str0" points="96.39,194.05 85.36,190.57 85.09,190.98 84.83,191.39 84.57,191.81 84.31,192.23 84.06,192.65 83.81,193.08 83.56,193.51 83.32,193.94 83.08,194.37 82.84,194.81 82.61,195.25 82.38,195.7 82.15,196.14 81.93,196.59 81.72,197.05 81.5,197.5 81.29,197.96 81.08,198.42 80.88,198.88 80.68,199.35 80.48,199.82 80.29,200.29 80.1,200.76 79.91,201.23 79.73,201.71 79.56,202.19 79.38,202.67 79.21,203.16 79.04,203.64 78.88,204.13 78.72,204.62 78.57,205.11 89.61,208.58 89.76,208.09 89.92,207.6 90.08,207.12 90.25,206.63 90.42,206.15 90.59,205.67 90.77,205.19 90.95,204.71 91.14,204.23 91.33,203.76 91.52,203.29 91.72,202.82 91.92,202.36 92.12,201.9 92.33,201.43 92.54,200.98 92.75,200.52 92.97,200.07 93.19,199.62 93.42,199.17 93.65,198.73 93.88,198.29 94.12,197.85 94.36,197.41 94.6,196.98 94.84,196.55 95.09,196.13 95.35,195.7 95.6,195.29 95.86,194.87 96.13,194.46 "/>
     <polygon class="fil2 str0" points="89.61,208.58 78.57,205.11 70.36,209.88 81.4,213.36 "/>
     <path class="fil8 str0" d="M122.87 245.75c-10.42,6.98 -21.62,1.38 -25,-12.53 -3.38,-13.91 2.35,-30.88 12.77,-37.86 10.44,-6.99 21.64,-1.37 25.01,12.54 3.37,13.91 -2.35,30.86 -12.78,37.85zm-41.46 -32.4c-3.43,11.89 -3.07,21.39 -0.02,29.2l8.15 1.52c1.66,4.7 3.97,8.62 6.74,11.67l-0.5 11.96c6.49,6.63 13.09,7.68 19.78,4.78l4.74 -10.88c1.9,-0.73 3.8,-1.72 5.69,-2.98 1.87,-1.25 3.63,-2.72 5.29,-4.36l7.88 2.64c7.45,-7.79 11.17,-16.66 12.24,-26.25l-5.22 -8.25c0.75,-5.4 0.78,-10.88 0.03,-16.18l5.37 -10.34c-1.89,-11.45 -6.19,-17.97 -12.21,-21l-7.98 5.8c-3.37,-1.91 -7.08,-2.84 -10.94,-2.68l-4.56 -9.03c-4.19,0.35 -7.84,1.67 -11.05,3.82 -3.39,2.27 -6.28,5.48 -8.75,9.45l0.3 11.83c-2.86,4.34 -5.16,9.29 -6.79,14.53l-8.21 4.77z"/>
    </g>
    <path class="fil4" d="M250.4 314.24c-21.76,0 -39.4,6.35 -39.4,14.19 0,7.84 17.64,14.19 39.4,14.19 21.76,0 39.4,-6.35 39.4,-14.19 0,-7.84 -17.64,-14.19 -39.4,-14.19z"/>
    <g>
     <polygon class="fil6 str0" points="196.21,296.95 196.14,302.52 196.21,303.52 196.42,304.51 196.76,305.49 197.24,306.45 197.84,307.39 198.57,308.32 199.43,309.23 200.4,310.11 201.48,310.98 202.68,311.82 203.98,312.64 205.39,313.43 206.9,314.2 208.51,314.93 210.21,315.64 212.01,316.32 213.89,316.97 215.86,317.58 217.9,318.16 220.03,318.7 222.23,319.21 224.5,319.68 226.83,320.11 229.23,320.5 231.69,320.85 234.21,321.16 236.78,321.42 239.41,321.64 242.07,321.81 244.79,321.94 247.54,322.01 250.33,322.04 253.11,322.01 255.87,321.94 258.58,321.81 261.25,321.64 263.87,321.42 266.44,321.16 268.96,320.85 271.42,320.5 273.82,320.11 276.16,319.68 278.43,319.21 280.62,318.7 282.75,318.16 284.8,317.58 286.76,316.97 288.64,316.32 290.44,315.64 292.14,314.93 293.75,314.2 295.26,313.43 296.67,312.64 297.97,311.82 299.17,310.98 300.26,310.11 301.23,309.23 302.08,308.32 302.81,307.39 303.41,306.45 303.89,305.49 304.24,304.51 304.44,303.52 304.52,297.95 304.31,298.94 303.96,299.92 303.49,300.88 302.88,301.82 302.15,302.75 301.3,303.66 300.33,304.54 299.25,305.41 298.05,306.25 296.74,307.07 295.33,307.86 293.82,308.63 292.22,309.36 290.51,310.07 288.72,310.75 286.84,311.4 284.87,312.01 282.82,312.59 280.7,313.13 278.5,313.64 276.23,314.11 273.89,314.54 271.49,314.93 269.03,315.28 266.51,315.59 263.94,315.85 261.32,316.07 258.65,316.24 255.94,316.37 253.19,316.44 250.4,316.47 247.61,316.44 244.86,316.37 242.15,316.24 239.48,316.07 236.86,315.85 234.29,315.59 231.77,315.28 229.31,314.93 226.91,314.54 224.57,314.11 222.3,313.64 220.1,313.13 217.98,312.59 215.93,312.01 213.96,311.4 212.08,310.75 210.29,310.07 208.59,309.36 206.98,308.63 205.47,307.86 204.06,307.07 202.75,306.25 201.55,305.41 200.47,304.54 199.5,303.66 198.65,302.75 197.92,301.82 197.31,300.88 196.84,299.92 196.49,298.94 196.28,297.95 "/>
     <path class="fil9 str0" d="M250.4 296.95l-21.92 -17.85c-19.62,3.13 -32.27,10.13 -32.27,17.85 0,10.78 24.26,19.52 54.19,19.52 3.67,0 7.33,-0.13 10.92,-0.4l-10.92 -19.12z"/>
     <path class="fil10 str0" d="M250.42 290.44l-21.92 -17.85c-19.62,3.13 -32.27,10.13 -32.27,17.85 0,5.83 7.23,11.35 19.71,15.06l34.48 -15.06z"/>
     <path class="fil11 str0" d="M250.44 283.94l-21.92 -17.85c-6.31,1.01 -12.04,2.44 -16.86,4.22l38.78 13.64z"/>
     <g>
      <path class="fil2 str0" d="M250.4 277.42c-29.93,0 -54.19,8.74 -54.19,19.52 0,10.78 24.26,19.52 54.19,19.52 29.93,0 54.19,-8.74 54.19,-19.52 0,-10.78 -24.26,-19.52 -54.19,-19.52z"/>
      <g>
       <polygon class="fil0 str0" points="196.23,290.44 196.21,296.95 196.28,297.95 196.49,298.94 196.84,299.92 197.31,300.88 197.92,301.82 198.65,302.75 199.5,303.66 200.47,304.54 201.55,305.41 202.75,306.25 204.06,307.07 205.47,307.86 206.98,308.63 208.59,309.36 210.29,310.07 212.08,310.75 213.96,311.4 215.93,312.01 217.98,312.59 220.1,313.13 222.3,313.64 224.57,314.11 226.91,314.54 229.31,314.93 231.77,315.28 234.29,315.59 236.86,315.85 239.48,316.07 242.15,316.24 244.86,316.37 247.61,316.44 250.4,316.47 250.74,316.47 251.09,316.47 251.43,316.46 251.78,316.46 252.12,316.46 252.46,316.45 252.81,316.45 253.15,316.44 253.49,316.44 253.83,316.43 254.18,316.42 254.52,316.41 254.86,316.4 255.2,316.39 255.55,316.38 255.89,316.37 256.23,316.35 256.57,316.34 256.91,316.33 257.25,316.31 257.59,316.29 257.93,316.28 258.27,316.26 258.61,316.24 258.95,316.22 259.29,316.2 259.63,316.18 259.97,316.16 260.31,316.14 260.64,316.12 260.98,316.09 261.32,316.07 261.34,309.56 261,309.59 260.66,309.61 260.33,309.64 259.99,309.66 259.65,309.68 259.31,309.7 258.97,309.72 258.63,309.74 258.29,309.76 257.95,309.77 257.61,309.79 257.27,309.81 256.93,309.82 256.59,309.84 256.25,309.85 255.91,309.86 255.57,309.88 255.22,309.89 254.88,309.9 254.54,309.91 254.2,309.92 253.85,309.92 253.51,309.93 253.17,309.94 252.82,309.94 252.48,309.95 252.14,309.95 251.79,309.96 251.45,309.96 251.11,309.96 250.76,309.96 250.42,309.96 247.63,309.94 244.88,309.86 242.17,309.74 239.5,309.57 236.88,309.35 234.31,309.09 231.79,308.78 229.33,308.43 226.93,308.04 224.59,307.61 222.32,307.14 220.12,306.63 218,306.09 215.95,305.51 213.98,304.89 212.1,304.25 210.31,303.57 208.6,302.86 207,302.12 205.48,301.36 204.08,300.56 202.77,299.75 201.57,298.91 200.49,298.04 199.52,297.15 198.67,296.25 197.94,295.32 197.33,294.38 196.85,293.41 196.51,292.44 196.3,291.45 "/>
       <polygon class="fil0 str0" points="250.42,290.44 228.5,272.59 226.68,272.89 224.91,273.22 223.17,273.57 221.48,273.94 219.84,274.32 218.24,274.73 216.69,275.16 215.18,275.61 213.73,276.07 212.32,276.56 210.97,277.06 209.67,277.57 208.42,278.1 207.23,278.65 206.09,279.21 205.01,279.79 203.99,280.38 203.02,280.98 202.11,281.59 201.27,282.22 200.48,282.86 199.76,283.51 199.11,284.16 198.51,284.83 197.99,285.51 197.53,286.19 197.14,286.88 196.81,287.58 196.56,288.29 196.38,289 196.27,289.72 196.23,290.44 196.3,291.45 196.51,292.44 196.85,293.41 197.33,294.38 197.94,295.32 198.67,296.25 199.52,297.15 200.49,298.04 201.57,298.91 202.77,299.75 204.08,300.56 205.48,301.36 207,302.12 208.6,302.86 210.31,303.57 212.1,304.25 213.98,304.89 215.95,305.51 218,306.09 220.12,306.63 222.32,307.14 224.59,307.61 226.93,308.04 229.33,308.43 231.79,308.78 234.31,309.09 236.88,309.35 239.5,309.57 242.17,309.74 244.88,309.86 247.63,309.94 250.42,309.96 250.76,309.96 251.11,309.96 251.45,309.96 251.79,309.96 252.14,309.95 252.48,309.95 252.82,309.94 253.17,309.94 253.51,309.93 253.85,309.92 254.2,309.92 254.54,309.91 254.88,309.9 255.22,309.89 255.57,309.88 255.91,309.86 256.25,309.85 256.59,309.84 256.93,309.82 257.27,309.81 257.61,309.79 257.95,309.77 258.29,309.76 258.63,309.74 258.97,309.72 259.31,309.7 259.65,309.68 259.99,309.66 260.33,309.64 260.66,309.61 261,309.59 261.34,309.56 "/>
      </g>
      <g>
       <polygon class="fil1 str0" points="196.25,283.94 196.23,290.44 196.25,290.99 196.31,291.53 196.42,292.07 196.57,292.61 196.75,293.15 196.98,293.68 197.25,294.21 197.55,294.73 197.9,295.25 198.29,295.77 198.71,296.28 199.18,296.79 199.68,297.29 200.21,297.79 200.79,298.28 201.4,298.77 202.05,299.25 202.74,299.72 203.46,300.18 204.22,300.64 205.01,301.09 205.84,301.54 206.7,301.97 207.59,302.4 208.52,302.82 209.48,303.23 210.48,303.64 211.51,304.03 212.57,304.41 213.66,304.78 214.78,305.15 215.94,305.5 215.96,299 214.8,298.64 213.68,298.28 212.59,297.91 211.53,297.52 210.5,297.13 209.5,296.73 208.54,296.32 207.61,295.9 206.72,295.47 205.86,295.04 205.03,294.59 204.24,294.14 203.48,293.68 202.76,293.21 202.07,292.74 201.42,292.26 200.81,291.78 200.23,291.29 199.7,290.79 199.19,290.29 198.73,289.78 198.31,289.27 197.92,288.75 197.57,288.23 197.27,287.7 197,287.17 196.77,286.64 196.58,286.11 196.44,285.57 196.33,285.03 196.27,284.48 "/>
       <polygon class="fil1 str0" points="215.96,299 215.94,305.5 250.42,290.44 250.44,283.94 "/>
       <polygon class="fil1 str0" points="250.44,283.94 228.52,266.08 226.7,266.39 224.93,266.71 223.19,267.06 221.5,267.43 219.86,267.82 218.26,268.23 216.71,268.66 215.2,269.11 213.75,269.57 212.34,270.05 210.99,270.55 209.69,271.07 208.44,271.6 207.25,272.15 206.11,272.71 205.03,273.29 204,273.87 203.04,274.48 202.13,275.09 201.29,275.72 200.5,276.35 199.78,277 199.13,277.66 198.53,278.33 198.01,279 197.55,279.69 197.15,280.38 196.83,281.08 196.58,281.79 196.4,282.5 196.29,283.22 196.25,283.94 196.27,284.48 196.33,285.03 196.44,285.57 196.58,286.11 196.77,286.64 197,287.17 197.27,287.7 197.57,288.23 197.92,288.75 198.31,289.27 198.73,289.78 199.19,290.29 199.7,290.79 200.23,291.29 200.81,291.78 201.42,292.26 202.07,292.74 202.76,293.21 203.48,293.68 204.24,294.14 205.03,294.59 205.86,295.04 206.72,295.47 207.61,295.9 208.54,296.32 209.5,296.73 210.5,297.13 211.53,297.52 212.59,297.91 213.68,298.28 214.8,298.64 215.96,299 "/>
      </g>
      <g>
       <polygon class="fil6 str0" points="211.68,263.8 211.66,270.3 250.44,283.94 250.46,277.43 "/>
       <polygon class="fil6 str0" points="250.46,277.43 228.54,259.58 227.95,259.68 227.36,259.77 226.78,259.87 226.2,259.98 225.63,260.08 225.05,260.19 224.49,260.3 223.92,260.41 223.36,260.53 222.8,260.65 222.25,260.77 221.7,260.89 221.16,261.01 220.62,261.14 220.08,261.27 219.55,261.4 219.03,261.53 218.5,261.67 217.98,261.81 217.47,261.95 216.96,262.09 216.46,262.23 215.96,262.38 215.46,262.53 214.97,262.68 214.49,262.83 214.01,262.99 213.53,263.15 213.06,263.31 212.6,263.47 212.14,263.63 211.68,263.8 "/>
      </g>
     </g>
    </g>
    <polygon class="fil1 str0" points="-31.57,426.6 -32.49,713.37 104.76,757.32 105.68,470.55 "/>
    <polygon class="fil6 str0" points="105.68,470.55 104.76,757.32 242.01,713.37 242.93,426.6 "/>
    <polygon class="fil2 str0" points="242.93,426.6 105.68,382.66 -31.57,426.6 105.68,470.55 "/>
    <polygon class="fil0 str0" points="345.57,380.96 344.48,720.78 422.11,745.64 423.19,405.82 "/>
    <polygon class="fil1 str0" points="423.19,405.82 422.11,745.64 499.73,720.78 500.82,380.96 "/>
    <polygon class="fil2 str0" points="500.82,380.96 423.19,356.1 345.57,380.96 423.19,405.82 "/>
    <polygon class="fil2 str0" points="445.21,512.36 444.12,852.19 255.23,916.27 256.31,576.45 "/>
    <polygon class="fil1 str0" points="256.31,576.45 255.23,916.27 161.77,884.56 162.86,544.74 "/>
    <g>
     <g>
      <g>
       <polygon class="fil6 str0" points="437.11,217.95 426.21,216.36 424.13,216.26 422.05,216.36 419.98,216.64 417.93,217.1 415.9,217.75 413.9,218.56 411.93,219.54 409.99,220.69 408.09,222 406.22,223.46 404.4,225.07 402.61,226.83 400.87,228.72 399.18,230.76 397.54,232.92 395.96,235.22 394.43,237.63 392.96,240.17 391.56,242.81 390.21,245.57 388.94,248.43 387.74,251.39 386.61,254.45 385.55,257.59 384.58,260.83 383.68,264.14 382.88,267.53 382.15,270.99 381.52,274.52 380.98,278.11 380.54,281.77 380.19,285.47 379.95,289.23 379.81,292.98 379.78,296.69 379.85,300.34 380.02,303.93 380.29,307.46 380.66,310.92 381.13,314.31 381.68,317.63 382.33,320.86 383.06,324 383.88,327.06 384.78,330.02 385.76,332.88 386.82,335.64 387.96,338.28 389.17,340.82 390.45,343.23 391.81,345.53 393.22,347.69 394.71,349.73 396.25,351.63 397.86,353.38 399.52,354.99 401.24,356.46 403.01,357.76 404.83,358.91 406.7,359.89 408.62,360.71 410.58,361.35 412.58,361.81 423.48,363.4 421.48,362.94 419.52,362.3 417.6,361.48 415.73,360.5 413.91,359.35 412.14,358.04 410.42,356.58 408.76,354.97 407.15,353.22 405.61,351.32 404.13,349.28 402.71,347.12 401.36,344.82 400.07,342.41 398.86,339.87 397.73,337.23 396.67,334.47 395.68,331.61 394.78,328.65 393.96,325.59 393.23,322.45 392.58,319.22 392.03,315.9 391.57,312.51 391.2,309.05 390.92,305.52 390.75,301.93 390.68,298.28 390.71,294.57 390.85,290.82 391.1,287.06 391.44,283.36 391.88,279.7 392.42,276.11 393.06,272.58 393.78,269.12 394.59,265.73 395.48,262.42 396.45,259.18 397.51,256.04 398.64,252.98 399.84,250.02 401.12,247.16 402.46,244.4 403.86,241.76 405.33,239.22 406.86,236.81 408.45,234.51 410.09,232.35 411.78,230.31 413.51,228.42 415.3,226.66 417.12,225.05 418.99,223.59 420.9,222.28 422.83,221.13 424.81,220.15 426.8,219.33 428.83,218.69 430.88,218.23 432.95,217.95 435.03,217.85 "/>
      </g>
      <path class="fil6 str0" d="M435.03 217.85c-22.35,0 -42.13,32.67 -44.18,72.96 -2.05,40.3 14.4,72.96 36.74,72.96 22.35,0 42.13,-32.67 44.18,-72.96 2.05,-40.3 -14.4,-72.96 -36.75,-72.96z"/>
      <path class="fil2 str0" d="M435.5 228.45c-18.27,0 -34.47,27.92 -36.19,62.36 -1.72,34.44 11.7,62.36 29.97,62.36 18.27,0 34.47,-27.92 36.19,-62.36 1.72,-34.44 -11.7,-62.36 -29.97,-62.36z"/>
      <path class="fil1" d="M435.44 229.79c-17.51,0 -33.05,27.32 -34.71,61.03l31.7 0 3.01 -61.03z"/>
      <g>
       <path class="fil12 str0" d="M435.12 236.05c-0.16,3.25 -0.32,6.5 -0.49,9.74"/>
       <path class="fil12 str0" d="M430.13 335.99c-0.16,3.25 -0.32,6.5 -0.49,9.74"/>
      </g>
      <g>
       <path class="fil12 str0" d="M461.47 290.89c-1.72,0 -3.45,0 -5.17,0"/>
       <path class="fil12 str0" d="M408.46 290.89c-1.72,0 -3.45,0 -5.17,0"/>
      </g>
      <g>
       <path class="fil12 str0" d="M449.3 243.4c-1,2.81 -2,5.63 -3.01,8.44"/>
       <path class="fil12 str0" d="M418.47 329.95c-1,2.81 -2,5.63 -3.01,8.44"/>
      </g>
      <g>
       <path class="fil12 str0" d="M456.21 318.32c-1.41,-1.62 -2.82,-3.25 -4.23,-4.87"/>
       <path class="fil12 str0" d="M412.79 268.34c-1.41,-1.62 -2.82,-3.25 -4.23,-4.87"/>
      </g>
      <g>
       <path class="fil12 str0" d="M458.94 263.47c-1.57,1.62 -3.15,3.25 -4.72,4.87"/>
       <path class="fil12 str0" d="M410.54 313.44c-1.57,1.62 -3.15,3.25 -4.72,4.87"/>
      </g>
      <g>
       <path class="fil12 str0" d="M444.56 338.39c-0.72,-2.81 -1.44,-5.63 -2.16,-8.44"/>
       <path class="fil12 str0" d="M422.37 251.84c-0.72,-2.81 -1.44,-5.63 -2.16,-8.44"/>
      </g>
      <path class="fil6 str0" d="M432.38 290.82c0.55,0 1.11,0 1.66,0 3.27,-9.18 6.54,-18.37 9.81,-27.55 -3.77,8.14 -7.54,16.29 -11.31,24.43 -0.05,1.04 -0.1,2.08 -0.16,3.13z"/>
      <path class="fil6 str0" d="M432.38 290.82c-0.25,-1.1 -0.49,-2.2 -0.74,-3.29 -7.7,-2.54 -15.4,-5.08 -23.09,-7.62 7.37,4.33 14.73,8.66 22.1,12.98 0.58,-0.69 1.15,-1.38 1.73,-2.07z"/>
      <path class="fil6 str0" d="M432.57 287.11c-1.09,0 -2.05,1.66 -2.15,3.7 -0.1,2.05 0.7,3.7 1.78,3.7 1.09,0 2.05,-1.66 2.15,-3.7 0.1,-2.05 -0.7,-3.7 -1.78,-3.7z"/>
     </g>
     <path class="fil4" d="M423.46 372.68c-11.56,0 -20.93,3.38 -20.93,7.54 0,4.17 9.37,7.54 20.93,7.54 11.56,0 20.93,-3.38 20.93,-7.54 0,-4.17 -9.37,-7.54 -20.93,-7.54z"/>
    </g>
    <g>
     <polygon class="fil2 str0" points="162.86,544.74 351.75,480.66 445.21,512.36 256.31,576.45 "/>
     <polygon class="fil13" points="240.59,548.69 364.81,506.54 374.34,509.77 250.12,551.92 "/>
    </g>
    <path class="fil11 str0" d="M115.62 335.55l0 0zm6.56 1.54l0 0z"/>
    <path class="fil11 str0" d="M164.16 324.82l0 0zm6.56 1.54l0 0z"/>
    <polygon class="fil4" points="56.57,444.93 161.4,409.36 169.43,412.09 64.61,447.65 "/>
    <g>
     <polygon class="fil2 str0" points="381.06,387.89 375.95,385.19 236.62,432.41 241.74,435.11 "/>
     <polygon class="fil2 str0" points="241.74,435.11 236.62,432.41 236.62,530.71 241.74,533.41 "/>
    </g>
    <polygon class="fil2 str0" points="381.06,387.89 241.74,435.11 241.74,533.41 381.06,486.18 "/>
    <g>
     <polygon class="fil1 str0" points="241.74,435.11 236.62,432.41 236.62,421.52 236.63,421.16 236.66,420.81 236.7,420.45 236.75,420.1 236.82,419.74 236.9,419.39 237,419.04 237.11,418.69 237.23,418.35 237.37,418 237.52,417.67 237.68,417.33 237.85,417.01 238.03,416.69 238.23,416.37 238.43,416.06 238.64,415.76 238.87,415.47 239.1,415.19 239.34,414.92 239.59,414.65 239.85,414.4 240.11,414.16 240.38,413.93 240.66,413.71 240.95,413.51 241.24,413.31 241.54,413.14 241.84,412.97 242.15,412.83 242.46,412.69 242.77,412.58 369.8,369.52 370.42,369.35 371.03,369.24 371.62,369.21 372.19,369.25 372.72,369.36 373.23,369.53 378.34,372.23 377.84,372.06 377.3,371.95 376.74,371.91 376.15,371.94 375.54,372.04 374.91,372.22 247.89,415.28 247.57,415.39 247.26,415.52 246.95,415.67 246.65,415.83 246.36,416.01 246.06,416.2 245.78,416.41 245.5,416.63 245.23,416.86 244.96,417.1 244.71,417.35 244.46,417.61 244.21,417.89 243.98,418.17 243.76,418.46 243.55,418.76 243.34,419.07 243.15,419.38 242.96,419.7 242.79,420.03 242.63,420.36 242.48,420.7 242.35,421.04 242.22,421.39 242.11,421.74 242.02,422.09 241.93,422.44 241.86,422.79 241.81,423.15 241.77,423.5 241.75,423.86 241.74,424.21 "/>
    </g>
    <path class="fil1 str0" d="M381.06 387.89l-139.32 47.22 0 -10.9c0,-3.77 2.77,-7.79 6.15,-8.94l127.03 -43.06c3.38,-1.15 6.15,1 6.15,4.77l0 10.9z"/>
    <polygon class="fil14 str0" points="373.38,399.78 356.37,405.55 356.37,410.14 373.38,404.38 "/>
    <polygon class="fil14 str0" points="373.38,411.75 356.37,417.51 356.37,430.37 373.38,424.61 "/>
    <polygon class="fil14 str0" points="373.38,429.83 356.37,435.6 356.37,448.46 373.38,442.69 "/>
    <polygon class="fil14 str0" points="373.38,447.92 356.37,453.68 356.37,466.54 373.38,460.77 "/>
    <polygon class="fil14 str0" points="373.38,466 356.37,471.77 356.37,484.62 373.38,478.86 "/>
    <polygon class="fil14 str0" points="352.08,407 335.07,412.77 335.07,417.36 352.08,411.6 "/>
    <polygon class="fil14 str0" points="352.08,418.97 335.07,424.73 335.07,437.59 352.08,431.83 "/>
    <polygon class="fil0 str0" points="352.08,437.05 335.07,442.82 335.07,455.68 352.08,449.91 "/>
    <polygon class="fil14 str0" points="352.08,455.14 335.07,460.9 335.07,473.76 352.08,467.99 "/>
    <polygon class="fil0 str0" points="352.08,473.22 335.07,478.99 335.07,491.84 352.08,486.08 "/>
    <polygon class="fil14 str0" points="330.77,414.22 313.76,419.99 313.76,424.58 330.77,418.82 "/>
    <polygon class="fil14 str0" points="330.77,426.19 313.76,431.95 313.76,444.81 330.77,439.05 "/>
    <polygon class="fil1 str0" points="330.77,444.27 313.76,450.04 313.76,462.9 330.77,457.13 "/>
    <polygon class="fil14 str0" points="330.77,462.36 313.76,468.12 313.76,480.98 330.77,475.22 "/>
    <polygon class="fil14 str0" points="330.77,480.44 313.76,486.21 313.76,499.07 330.77,493.3 "/>
    <polygon class="fil14 str0" points="309.47,421.44 292.46,427.21 292.46,431.8 309.47,426.04 "/>
    <polygon class="fil14 str0" points="309.47,433.41 292.46,439.17 292.46,452.03 309.47,446.27 "/>
    <polygon class="fil6 str0" points="309.47,451.49 292.46,457.26 292.46,470.12 309.47,464.35 "/>
    <polygon class="fil6 str0" points="309.47,469.58 292.46,475.34 292.46,488.2 309.47,482.44 "/>
    <polygon class="fil14 str0" points="309.47,487.66 292.46,493.43 292.46,506.29 309.47,500.52 "/>
    <polygon class="fil14 str0" points="288.17,428.66 271.16,434.43 271.16,439.02 288.17,433.26 "/>
    <polygon class="fil6 str0" points="288.17,440.63 271.16,446.39 271.16,459.25 288.17,453.49 "/>
    <polygon class="fil1 str0" points="288.17,458.71 271.16,464.48 271.16,477.34 288.17,471.57 "/>
    <polygon class="fil14 str0" points="288.17,476.8 271.16,482.56 271.16,495.42 288.17,489.66 "/>
    <polygon class="fil0 str0" points="288.17,494.88 271.16,500.65 271.16,513.51 288.17,507.74 "/>
    <polygon class="fil14 str0" points="266.87,435.88 249.86,441.65 249.86,446.24 266.87,440.48 "/>
    <polygon class="fil14 str0" points="266.87,447.85 249.86,453.62 249.86,466.47 266.87,460.71 "/>
    <polygon class="fil14 str0" points="266.87,465.93 249.86,471.7 249.86,484.56 266.87,478.79 "/>
    <polygon class="fil14 str0" points="266.87,484.02 249.86,489.78 249.86,502.64 266.87,496.88 "/>
    <polygon class="fil14 str0" points="266.87,502.1 249.86,507.87 249.86,520.73 266.87,514.96 "/>
    <g>
     <path class="fil2 str0" d="M311.4 399.46c-1.48,0.5 -2.69,2.33 -2.69,4.08 0,1.75 1.2,2.76 2.69,2.26 1.48,-0.5 2.69,-2.33 2.69,-4.08 0,-1.75 -1.2,-2.76 -2.69,-2.26z"/>
     <path class="fil2 str0" d="M322.14 395.81c-1.48,0.5 -2.69,2.33 -2.69,4.08 0,1.75 1.2,2.76 2.69,2.26 1.48,-0.5 2.69,-2.33 2.69,-4.08 0,-1.75 -1.2,-2.76 -2.69,-2.26z"/>
     <path class="fil2 str0" d="M300.66 403.1c-1.48,0.5 -2.69,2.33 -2.69,4.08 0,1.75 1.2,2.76 2.69,2.26 1.48,-0.5 2.69,-2.33 2.69,-4.08 0,-1.75 -1.2,-2.76 -2.69,-2.26z"/>
    </g>
    <path class="fil6 str0" d="M286.69 388.97l-0 0c-2.27,0.34 -4.14,2.27 -4.14,4.29l0 17.43c0,2.02 1.86,3.39 4.14,3.05l0 0c2.27,-0.34 4.14,-2.27 4.14,-4.29l0 -17.43c0,-2.02 -1.86,-3.39 -4.14,-3.05z"/>
    <g>
     <path class="fil6" d="M288.66 389.12l-0 -0 -2.73 -0.94 2.73 0.94 -0 0zm-2.73 -0.94l-7.59 -2.61 0 0 -2.63 -0.9 -0.36 -0.1 -0.38 -0.07 -0.4 -0.03 -0.41 0.01 -0.42 0.04 0 0 -0.42 0.08 -0.41 0.12 -0.4 0.15 -0.38 0.18 -0.36 0.21 -0.34 0.24 -0.32 0.26 -0.29 0.28 -0.27 0.3 -0.24 0.32 -0.21 0.33 -0.17 0.35 -0.14 0.36 -0.1 0.37 -0.06 0.37 -0.02 0.38 0 2.96c0,3.69 0,7.38 0,11.07l0 0.18 3.48 -1.01 5.25 2.94 0 6.44 6.38 2.19 -0.34 -0.13 -0.32 -0.16 -0.29 -0.19 -0.27 -0.22 -0.24 -0.25 -0.21 -0.27 -0.17 -0.29 -0.14 -0.32 -0.1 -0.34 -0.06 -0.35 -0.02 -0.37 0 -12.05 0 -5.38 0.02 -0.38 0.06 -0.37 0.1 -0.37 0.14 -0.36 0.17 -0.35 0.21 -0.33 0 0 0.24 -0.32 0 0 0.27 -0.3 0.29 -0.28 0 -0 0.32 -0.26 0.34 -0.23 0 0 0.36 -0.21 0 0 0.38 -0.18 0 0 0.4 -0.15 0 0 0.41 -0.12 0.42 -0.08 0.42 -0.04 0.41 -0.01 0.4 0.03 0.38 0.07 0 0 0.36 0.1 -2.73 -0.94zm-16.32 14.66c0,0 0,0 0,0z"/>
     <path id="_1_0" class="fil12 str0" d="M288.66 389.12l-0 -0 -2.73 -0.94 2.73 0.94 -0 0zm-2.73 -0.94l-7.59 -2.61 0 0 -2.63 -0.9 -0.36 -0.1 -0.38 -0.07 -0.4 -0.03 -0.41 0.01 -0.42 0.04 0 0 -0.42 0.08 -0.41 0.12 -0.4 0.15 -0.38 0.18 -0.36 0.21 -0.34 0.24 -0.32 0.26 -0.29 0.28 -0.27 0.3 -0.24 0.32 -0.21 0.33 -0.17 0.35 -0.14 0.36 -0.1 0.37 -0.06 0.37 -0.02 0.38 0 2.96c0,3.69 0,7.38 0,11.07l0 0.18 3.48 -1.01 5.25 2.94 0 6.44 6.38 2.19 -0.34 -0.13 -0.32 -0.16 -0.29 -0.19 -0.27 -0.22 -0.24 -0.25 -0.21 -0.27 -0.17 -0.29 -0.14 -0.32 -0.1 -0.34 -0.06 -0.35 -0.02 -0.37 0 -12.05 0 -5.38 0.02 -0.38 0.06 -0.37 0.1 -0.37 0.14 -0.36 0.17 -0.35 0.21 -0.33 0 0 0.24 -0.32 0 0 0.27 -0.3 0.29 -0.28 0 -0 0.32 -0.26 0.34 -0.23 0 0 0.36 -0.21 0 0 0.38 -0.18 0 0 0.4 -0.15 0 0 0.41 -0.12 0.42 -0.08 0.42 -0.04 0.41 -0.01 0.4 0.03 0.38 0.07 0 0 0.36 0.1m-19.05 13.73c0,0 0,0 0,0z"/>
    </g>
    <path class="fil6 str0" d="M344.06 370.04l-0 0c-2.27,0.34 -4.14,2.27 -4.14,4.29l0 17.43c0,2.02 1.86,3.39 4.14,3.05l0 0c2.27,-0.34 4.14,-2.27 4.14,-4.29l0 -17.43c0,-2.02 -1.86,-3.39 -4.14,-3.05z"/>
    <g>
     <path class="fil6" d="M346.03 370.19l-0 -0 -2.73 -0.94 2.73 0.94 -0 0zm-2.73 -0.94l-7.59 -2.61 0 0 -2.63 -0.9 -0.36 -0.1 -0.38 -0.07 -0.4 -0.03 -0.41 0.01 -0.42 0.04 0 0 -0.42 0.08 -0.41 0.12 -0.4 0.15 -0.38 0.18 -0.36 0.21 -0.34 0.24 -0.32 0.26 -0.29 0.28 -0.27 0.3 -0.24 0.32 -0.21 0.33 -0.17 0.35 -0.14 0.36 -0.1 0.37 -0.06 0.37 -0.02 0.38 0 2.96c0,3.69 0,7.38 0,11.07l0 0.18 3.48 -1.01 5.25 2.94 0 6.44 6.38 2.19 -0.34 -0.13 -0.32 -0.16 -0.29 -0.19 -0.27 -0.22 -0.24 -0.25 -0.21 -0.27 -0.17 -0.29 -0.14 -0.32 -0.1 -0.34 -0.06 -0.35 -0.02 -0.37 0 -12.05 0 -5.38 0.02 -0.38 0.06 -0.37 0.1 -0.37 0.14 -0.36 0.17 -0.35 0.21 -0.33 0 0 0.24 -0.32 0 0 0.27 -0.3 0.29 -0.28 0 -0 0.32 -0.26 0.34 -0.24 0 0 0.36 -0.21 0 0 0.38 -0.18 0 0 0.4 -0.15 0 0 0.41 -0.12 0.42 -0.08 0.42 -0.04 0.41 -0.01 0.4 0.03 0.38 0.07 0 0 0.36 0.1 -2.73 -0.94zm-16.32 14.66c0,0 0,0 0,0z"/>
     <path id="_1_1" class="fil12 str0" d="M346.03 370.19l-0 -0 -2.73 -0.94 2.73 0.94 -0 0zm-2.73 -0.94l-7.59 -2.61 0 0 -2.63 -0.9 -0.36 -0.1 -0.38 -0.07 -0.4 -0.03 -0.41 0.01 -0.42 0.04 0 0 -0.42 0.08 -0.41 0.12 -0.4 0.15 -0.38 0.18 -0.36 0.21 -0.34 0.24 -0.32 0.26 -0.29 0.28 -0.27 0.3 -0.24 0.32 -0.21 0.33 -0.17 0.35 -0.14 0.36 -0.1 0.37 -0.06 0.37 -0.02 0.38 0 2.96c0,3.69 0,7.38 0,11.07l0 0.18 3.48 -1.01 5.25 2.94 0 6.44 6.38 2.19 -0.34 -0.13 -0.32 -0.16 -0.29 -0.19 -0.27 -0.22 -0.24 -0.25 -0.21 -0.27 -0.17 -0.29 -0.14 -0.32 -0.1 -0.34 -0.06 -0.35 -0.02 -0.37 0 -12.05 0 -5.38 0.02 -0.38 0.06 -0.37 0.1 -0.37 0.14 -0.36 0.17 -0.35 0.21 -0.33 0 0 0.24 -0.32 0 0 0.27 -0.3 0.29 -0.28 0 -0 0.32 -0.26 0.34 -0.24 0 0 0.36 -0.21 0 0 0.38 -0.18 0 0 0.4 -0.15 0 0 0.41 -0.12 0.42 -0.08 0.42 -0.04 0.41 -0.01 0.4 0.03 0.38 0.07 0 0 0.36 0.1m-19.05 13.73c0,0 0,0 0,0z"/>
    </g>
    <g>
     <polygon class="fil6 str0" points="44.58,434.67 36.29,432.32 35.88,432.14 35.49,431.93 35.11,431.71 34.76,431.46 34.43,431.19 34.11,430.9 33.82,430.59 33.55,430.26 33.3,429.92 33.07,429.55 32.87,429.16 32.69,428.76 32.54,428.33 32.41,427.89 32.31,427.43 32.24,426.96 32.2,426.47 32.18,425.96 32.18,326.73 32.2,326.22 32.24,325.7 32.31,325.18 32.41,324.65 32.54,324.13 32.69,323.61 32.87,323.09 33.07,322.57 33.3,322.05 33.55,321.54 33.82,321.03 34.11,320.53 34.43,320.04 34.76,319.55 35.11,319.07 35.49,318.6 35.88,318.14 36.29,317.7 36.71,317.26 37.16,316.84 37.61,316.43 38.08,316.03 38.57,315.65 39.07,315.29 39.58,314.94 40.1,314.62 40.63,314.31 41.18,314.02 41.73,313.75 42.29,313.5 42.86,313.28 43.44,313.08 158.53,275.53 159.11,275.35 159.68,275.21 160.24,275.09 160.8,275 161.34,274.93 161.87,274.89 162.39,274.88 162.91,274.89 163.4,274.93 163.89,274.99 164.36,275.08 172.65,277.43 172.18,277.35 171.7,277.28 171.2,277.24 170.69,277.23 170.17,277.24 169.63,277.28 169.09,277.35 168.54,277.44 167.97,277.56 167.4,277.71 166.83,277.88 51.73,315.43 51.15,315.63 50.58,315.86 50.02,316.1 49.47,316.37 48.93,316.66 48.39,316.97 47.87,317.3 47.36,317.64 46.86,318.01 46.38,318.39 45.91,318.78 45.45,319.19 45.01,319.61 44.58,320.05 44.17,320.5 43.78,320.96 43.41,321.42 43.05,321.9 42.72,322.39 42.4,322.88 42.11,323.39 41.84,323.89 41.59,324.4 41.36,324.92 41.16,325.44 40.98,325.96 40.83,326.48 40.7,327.01 40.61,327.53 40.53,328.05 40.49,328.57 40.48,329.09 40.48,428.31 40.49,428.82 40.53,429.31 40.61,429.79 40.7,430.24 40.83,430.68 40.98,431.11 41.16,431.51 41.36,431.9 41.59,432.27 41.84,432.62 42.11,432.95 42.4,433.26 42.72,433.54 43.05,433.81 43.41,434.06 43.78,434.29 44.17,434.49 "/>
     <path class="fil2 str0" d="M51.73 315.43l115.1 -37.55c6.19,-2.02 11.26,0.82 11.26,6.31l0 99.23c0,5.49 -5.06,11.64 -11.26,13.66l-115.1 37.55c-6.19,2.02 -11.26,-0.82 -11.26,-6.31l0 -99.23c0,-5.49 5.07,-11.64 11.26,-13.66z"/>
     <polygon class="fil15 str0" points="135.93,394.24 127.64,391.89 127.12,339.36 127.12,339.32 127.13,339.28 127.14,339.24 127.15,339.2 127.17,339.17 127.2,339.13 127.22,339.11 127.25,339.08 140.6,329.83 140.62,329.81 140.65,329.81 140.67,329.81 148.97,332.16 148.94,332.16 148.92,332.16 148.89,332.18 135.54,341.44 135.51,341.46 135.49,341.49 135.47,341.52 135.45,341.56 135.43,341.59 135.42,341.63 135.41,341.67 135.41,341.71 "/>
     <path class="fil15 str0" d="M135.54 341.44l13.35 -9.26c0.08,-0.05 0.14,-0.01 0.14,0.09l0.69 57.44 -13.79 4.53 -0.52 -52.53c-0,-0.1 0.06,-0.23 0.13,-0.28z"/>
     <g>
      <polygon class="fil6 str0" points="70.74,335.16 62.44,332.81 62.18,332.72 61.93,332.6 61.71,332.44 61.5,332.26 61.32,332.05 61.16,331.81 61.02,331.54 60.91,331.25 60.83,330.94 60.79,330.61 60.77,330.25 60.77,330.25 60.79,329.89 60.83,329.52 60.91,329.16 61.02,328.8 61.16,328.45 61.32,328.11 61.5,327.77 61.71,327.46 61.93,327.15 62.18,326.87 62.44,326.61 62.72,326.37 63.01,326.15 63.32,325.96 63.63,325.81 63.96,325.68 102.73,313.04 103.05,312.95 103.37,312.9 103.67,312.89 103.96,312.91 104.24,312.97 112.54,315.32 112.26,315.26 111.97,315.24 111.66,315.25 111.34,315.3 111.02,315.39 72.25,328.04 71.93,328.16 71.61,328.32 71.31,328.5 71.01,328.72 70.74,328.96 70.47,329.22 70.23,329.51 70,329.81 69.79,330.13 69.61,330.46 69.45,330.8 69.31,331.15 69.21,331.51 69.13,331.88 69.08,332.24 69.06,332.61 69.06,332.61 69.08,332.96 69.13,333.29 69.21,333.61 69.31,333.9 69.45,334.16 69.61,334.4 69.79,334.61 70,334.79 70.23,334.95 70.47,335.07 "/>
     </g>
     <path class="fil6 str0" d="M72.25 328.04l38.77 -12.65c1.76,-0.57 3.19,0.55 3.19,2.49l0 0c0,1.94 -1.44,4 -3.19,4.57l-38.77 12.65c-1.75,0.57 -3.19,-0.55 -3.19,-2.49l0 -0c0,-1.94 1.44,-4 3.19,-4.57z"/>
     <g>
      <polygon class="fil15 str0" points="117.89,354.44 109.6,352.09 109.6,352.05 109.61,352.01 109.62,351.98 109.63,351.94 109.65,351.9 109.67,351.87 109.7,351.84 109.72,351.82 122.41,343.03 122.44,343.01 122.46,343 122.48,343.01 130.78,345.36 130.75,345.36 130.73,345.36 130.7,345.38 118.02,354.17 117.99,354.2 117.97,354.22 117.95,354.25 117.93,354.29 117.91,354.33 117.9,354.37 117.89,354.41 "/>
      <polygon class="fil15 str0" points="118.22,400.33 109.93,397.98 109.6,352.09 117.89,354.44 "/>
     </g>
     <path class="fil15 str0" d="M118.02 354.17l12.69 -8.8c0.07,-0.05 0.13,-0.01 0.13,0.09l0.46 50.56 -13.08 4.3 -0.33 -45.89c-0,-0.1 0.06,-0.22 0.12,-0.27z"/>
     <polygon class="fil15 str0" points="101.4,406.12 93.11,403.77 92.93,364.2 92.93,364.17 92.94,364.13 92.95,364.09 92.96,364.05 92.98,364.02 93,363.99 93.02,363.96 93.05,363.94 105.12,355.57 105.15,355.56 105.17,355.55 105.19,355.55 113.48,357.91 113.46,357.9 113.44,357.91 113.42,357.92 101.34,366.3 101.32,366.32 101.29,366.34 101.27,366.37 101.26,366.41 101.24,366.44 101.23,366.48 101.22,366.52 101.22,366.56 "/>
     <path class="fil15 str0" d="M101.34 366.3l12.07 -8.37c0.07,-0.05 0.12,-0 0.13,0.09l0.28 44.02 -12.42 4.08 -0.18 -39.56c-0,-0.1 0.05,-0.21 0.12,-0.26z"/>
     <polygon class="fil15 str0" points="85.41,411.62 77.12,409.27 77.05,375.74 77.05,375.71 77.06,375.67 77.07,375.63 77.08,375.6 77.1,375.56 77.12,375.53 77.14,375.51 77.16,375.49 88.67,367.51 88.69,367.5 88.71,367.5 88.73,367.5 97.02,369.85 97,369.85 96.98,369.85 96.96,369.87 85.45,377.84 85.43,377.86 85.41,377.89 85.39,377.92 85.37,377.95 85.36,377.99 85.35,378.02 85.34,378.06 85.34,378.1 "/>
     <path class="fil15 str0" d="M85.45 377.84l11.5 -7.98c0.06,-0.05 0.12,-0 0.12,0.09l0.15 37.78 -11.81 3.88 -0.07 -33.53c0,-0.1 0.05,-0.21 0.11,-0.25z"/>
     <g>
      <polygon class="fil1 str0" points="64.55,375.19 56.26,372.84 150.55,305.14 158.84,307.49 "/>
      <polygon class="fil1 str0" points="158.84,307.49 150.55,305.14 148.97,299.14 157.27,301.49 "/>
      <polygon class="fil1 str0" points="157.27,301.49 148.97,299.14 164.52,301.58 172.81,303.93 "/>
      <polygon class="fil1 str0" points="163.27,324.42 154.98,322.06 153.41,316.06 161.7,318.41 "/>
      <polygon class="fil1 str0" points="67.42,386.11 59.12,383.75 56.26,372.84 64.55,375.19 "/>
     </g>
     <polygon class="fil1 str0" points="64.55,375.19 158.84,307.49 157.27,301.49 172.81,303.93 163.27,324.42 161.7,318.41 67.42,386.11 "/>
    </g>
    <path class="fil4" d="M268.09 68.17c27.27,0 49.37,7.73 49.37,17.26 0,9.53 -22.1,17.26 -49.37,17.26 -27.27,0 -49.37,-7.73 -49.37,-17.26 0,-9.53 22.1,-17.26 49.37,-17.26zm0 6.49c17.01,0 30.79,4.82 30.79,10.77 0,5.94 -13.79,10.77 -30.79,10.77 -17.01,0 -30.79,-4.82 -30.79,-10.77 0,-5.95 13.79,-10.77 30.79,-10.77z"/>
    <g>
     <polygon class="fil16 str0" points="204.31,49.3 204.17,61.93 222.59,61.93 222.73,49.3 "/>
     <polygon class="fil17 str0" points="222.73,49.3 222.59,61.93 222.64,61.15 222.81,60.37 223.09,59.61 223.47,58.86 223.96,58.12 224.55,57.4 225.23,56.69 226.01,55.99 226.88,55.32 227.85,54.66 228.9,54.02 230.03,53.4 231.25,52.8 232.54,52.23 233.91,51.67 235.35,51.14 236.87,50.64 238.45,50.16 240.1,49.71 241.81,49.28 243.58,48.88 245.4,48.52 247.28,48.18 249.21,47.87 251.19,47.6 253.22,47.36 255.29,47.16 257.4,46.98 259.55,46.85 261.73,46.75 263.94,46.69 266.18,46.67 266.92,46.68 267.66,46.68 268.39,46.69 269.13,46.71 269.85,46.73 270.58,46.75 271.3,46.78 272.01,46.81 272.73,46.85 273.44,46.88 274.14,46.93 274.84,46.98 275.54,47.03 276.23,47.08 276.92,47.14 277.61,47.2 278.29,47.27 278.96,47.34 279.63,47.41 280.3,47.49 280.96,47.57 281.62,47.66 282.27,47.75 282.92,47.84 283.56,47.93 284.2,48.03 284.83,48.14 285.45,48.24 286.07,48.35 286.68,48.46 287.29,48.58 287.89,48.7 288.04,36.06 287.44,35.94 286.83,35.83 286.21,35.72 285.59,35.61 284.97,35.5 284.34,35.4 283.7,35.3 283.06,35.2 282.41,35.11 281.76,35.02 281.11,34.94 280.44,34.86 279.78,34.78 279.11,34.71 278.43,34.64 277.75,34.57 277.07,34.51 276.38,34.45 275.68,34.39 274.99,34.34 274.28,34.29 273.58,34.25 272.87,34.21 272.16,34.18 271.44,34.14 270.72,34.12 269.99,34.09 269.27,34.07 268.54,34.06 267.8,34.05 267.07,34.04 266.33,34.04 264.08,34.06 261.87,34.12 259.69,34.22 257.54,34.35 255.43,34.52 253.36,34.73 251.34,34.97 249.36,35.24 247.43,35.54 245.55,35.88 243.72,36.25 241.95,36.65 240.24,37.07 238.59,37.52 237.01,38 235.5,38.51 234.05,39.04 232.68,39.59 231.39,40.17 230.17,40.77 229.04,41.39 227.99,42.03 227.03,42.68 226.15,43.36 225.37,44.05 224.69,44.76 224.1,45.49 223.61,46.22 223.23,46.98 222.95,47.74 222.78,48.51 "/>
     <polygon class="fil16 str0" points="288.04,36.06 287.89,48.7 297.06,43.11 297.2,30.48 "/>
     <polygon class="fil16 str0" points="297.2,30.48 297.06,43.11 297.06,43.11 297.21,30.47 "/>
     <path class="fil16 str0" d="M266.18 83.64l0 0zm0.14 -12.63l0 0z"/>
     <polygon class="fil16 str0" points="266.33,71.01 266.18,83.64 266.18,77.2 266.33,64.56 "/>
     <polygon class="fil6 str0" points="328.26,50.42 328.12,63.05 327.88,64.15 327.49,65.24 326.94,66.31 326.25,67.36 325.41,68.39 324.44,69.4 323.33,70.38 322.09,71.35 320.72,72.28 319.22,73.19 317.61,74.07 315.88,74.92 314.04,75.74 312.09,76.53 310.04,77.28 307.88,78 305.63,78.68 303.29,79.33 300.86,79.93 298.34,80.5 295.75,81.02 293.07,81.5 290.32,81.94 287.51,82.32 284.63,82.66 281.68,82.96 278.68,83.2 275.63,83.39 272.53,83.53 269.38,83.61 266.18,83.64 266.33,71.01 269.52,70.98 272.67,70.89 275.77,70.76 278.83,70.57 281.83,70.32 284.77,70.03 287.65,69.69 290.47,69.3 293.21,68.87 295.89,68.39 298.49,67.86 301,67.3 303.43,66.69 305.78,66.05 308.03,65.37 310.18,64.65 312.23,63.89 314.18,63.11 316.02,62.29 317.75,61.44 319.37,60.56 320.86,59.65 322.23,58.71 323.47,57.75 324.58,56.76 325.56,55.75 326.39,54.73 327.08,53.68 327.63,52.61 328.02,51.52 "/>
     <polygon class="fil0 str0" points="266.33,71.01 266.18,83.64 262.99,83.61 259.84,83.53 256.74,83.39 253.69,83.2 250.69,82.96 247.74,82.66 244.86,82.32 242.05,81.94 239.3,81.5 236.62,81.02 234.03,80.5 231.51,79.93 229.08,79.33 226.74,78.68 224.49,78 222.33,77.28 220.28,76.53 218.33,75.74 216.49,74.92 214.76,74.07 213.15,73.19 211.65,72.28 210.28,71.35 209.04,70.38 207.93,69.4 206.96,68.39 206.12,67.36 205.43,66.31 204.88,65.24 204.49,64.15 204.25,63.05 204.17,61.93 204.31,49.3 204.39,50.42 204.63,51.52 205.03,52.61 205.57,53.68 206.26,54.73 207.1,55.75 208.07,56.76 209.18,57.75 210.43,58.71 211.8,59.65 213.29,60.56 214.9,61.44 216.63,62.29 218.47,63.11 220.42,63.89 222.48,64.65 224.63,65.37 226.88,66.05 229.22,66.69 231.65,67.3 234.17,67.86 236.77,68.39 239.44,68.87 242.19,69.3 245,69.69 247.89,70.03 250.83,70.32 253.83,70.57 256.88,70.76 259.99,70.89 263.14,70.98 "/>
     <polygon class="fil6 str0" points="309.93,49.3 309.79,61.93 309.76,61.41 309.68,60.88 309.56,60.36 309.38,59.85 309.16,59.34 308.89,58.84 308.57,58.34 308.2,57.85 307.8,57.36 307.34,56.89 306.85,56.42 306.31,55.95 305.73,55.5 305.11,55.05 304.45,54.61 303.75,54.18 303.01,53.76 302.23,53.35 301.42,52.94 300.57,52.55 299.69,52.17 298.77,51.8 297.82,51.43 296.83,51.08 295.82,50.74 294.77,50.41 293.7,50.1 292.59,49.79 291.46,49.5 290.3,49.22 289.11,48.95 287.89,48.7 288.04,36.06 289.25,36.32 290.44,36.58 291.6,36.86 292.73,37.16 293.84,37.46 294.92,37.78 295.96,38.11 296.98,38.45 297.96,38.8 298.91,39.16 299.83,39.53 300.71,39.92 301.56,40.31 302.37,40.71 303.15,41.13 303.89,41.55 304.59,41.98 305.25,42.42 305.87,42.86 306.45,43.32 306.99,43.78 307.49,44.25 307.94,44.73 308.35,45.21 308.71,45.7 309.03,46.2 309.3,46.71 309.52,47.21 309.7,47.73 309.83,48.25 309.9,48.77 "/>
    </g>
    <g>
     <path class="fil6 str0" d="M288 35.87l9.16 -5.62c19.24,3.89 31.11,11.11 31.11,18.93 0,12.05 -27.74,21.82 -61.96,21.82l0 -6.48c24.06,0 43.56,-6.87 43.56,-15.34 0,-5.69 -8.8,-10.66 -21.87,-13.31z"/>
     <path class="fil0 str0" d="M266.31 71.01l0 0zm0 0c-34.22,0 -61.96,-9.77 -61.96,-21.82l18.4 0c0,8.47 19.5,15.34 43.56,15.34l0 6.48z"/>
     <path class="fil17 str0" d="M297.16 30.25c0,0 -0.03,-0.01 -0.04,-0.01 -9.07,-1.84 -19.59,-2.89 -30.81,-2.89 -34.22,0 -61.96,9.77 -61.96,21.82l18.4 0c0,-8.47 19.5,-15.34 43.56,-15.34 7.9,0 15.3,0.74 21.69,2.03l9.16 -5.62 0 -0z"/>
    </g>
   </g>
  </g>
  <polygon class="fil12" points="-0,0 499.1,0 499.1,649.72 -0,649.72 "/>
 </g>
</svg>
